<svg width="460" height="538" viewBox="0 0 460 538" fill="none" xmlns="http://www.w3.org/2000/svg"><path d="M140.275 1.52h236.446c4.836 0 8.762 3.93 8.762 8.781v452.847c0 4.851-3.926 8.78-8.762 8.78H140.275c-4.836 0-8.762-3.929-8.762-8.78V10.298c0-4.85 3.925-8.777 8.762-8.777z" fill="#50CACC" stroke="#000" stroke-width="3"/><path d="M129.789 229.689c-2.543 15.171-17.297 17.326-17.297 17.326s14.754 2.153 17.297 17.327c2.543-15.171 17.297-17.327 17.297-17.327s-14.754-2.155-17.297-17.326zm300.073-94.641c-1.265 7.557-8.615 8.631-8.615 8.631s7.347 1.071 8.615 8.63c1.266-7.556 8.616-8.63 8.616-8.63s-7.35-1.074-8.616-8.631zM173.975 412.509c-1.008 6.019-6.862 6.874-6.862 6.874s5.854.854 6.862 6.874c1.009-6.02 6.862-6.874 6.862-6.874s-5.853-.855-6.862-6.874zm166.392 22.633c-.801 4.785-5.455 5.465-5.455 5.465s4.654.68 5.455 5.465c.802-4.785 5.456-5.465 5.456-5.465s-4.654-.68-5.456-5.465z" fill="#FFF9EB"/><path opacity=".6" d="M107.343 433.87c-.518 3.099-3.532 3.538-3.532 3.538s3.014.439 3.532 3.539c.519-3.1 3.533-3.539 3.533-3.539s-3.014-.439-3.533-3.538zm37.066-36.915c-.337 2.004-2.286 2.29-2.286 2.29s1.949.285 2.286 2.289c.337-2.004 2.285-2.289 2.285-2.289s-1.948-.286-2.285-2.29zm75.81 48.887c-.45 2.682-3.056 3.062-3.056 3.062s2.606.38 3.056 3.062c.451-2.682 3.057-3.062 3.057-3.062s-2.606-.38-3.057-3.062zm56.408-12.447c-.337 2.004-2.286 2.29-2.286 2.29s1.949.285 2.286 2.29c.337-2.005 2.285-2.29 2.285-2.29s-1.948-.286-2.285-2.29z" fill="#FFF9EB"/><path opacity=".4" d="M410.23 415.181c-.952 5.684-6.48 6.491-6.48 6.491s5.528.808 6.48 6.492c.952-5.684 6.48-6.492 6.48-6.492s-5.528-.807-6.48-6.491zm-97.874-13.649c-.639 3.817-4.35 4.358-4.35 4.358s3.711.543 4.35 4.357c.638-3.817 4.35-4.357 4.35-4.357s-3.709-.541-4.35-4.358z" fill="#FFF9EB"/><path d="M117.669 369.771c-6.255 0-11.329-5.083-11.329-11.349V239.384c0-6.266 5.074-11.349 11.329-11.349 6.256 0 11.33 5.083 11.33 11.349v119.038c0 6.27-5.07 11.349-11.33 11.349z" fill="#FFD000"/><path d="M444.838 213.562c0 91.785-74.277 166.188-165.897 166.188-91.62 0-165.898-74.403-165.898-166.188 0-91.786 74.278-166.188 165.898-166.188 91.62 0 165.897 74.402 165.897 166.188z" fill="#FFAC00" stroke="#000" stroke-width="3"/><path d="M409.092 213.562c0 91.785-74.278 166.188-165.898 166.188-91.62 0-165.897-74.403-165.897-166.188 0-91.786 74.277-166.188 165.897-166.188 91.62 0 165.898 74.402 165.898 166.188z" fill="#FFE300" stroke="#000" stroke-width="3"/><path d="M427.06 361.034c-5.424 0-9.83-4.409-9.83-9.849V239.384c0-5.44 4.406-9.849 9.83-9.849s9.83 4.409 9.83 9.849v111.801c0 5.44-4.406 9.849-9.83 9.849z" fill="#FFD000" stroke="#000" stroke-width="3"/><path d="M289.126 441.209c-6.729 0-12.191-5.467-12.191-12.215v-68.567c0-6.748 5.462-12.215 12.191-12.215 6.73 0 12.192 5.467 12.192 12.215v68.567c0 6.748-5.462 12.215-12.192 12.215zm-72.586 0c-6.73 0-12.191-5.467-12.191-12.215v-68.567c0-6.748 5.461-12.215 12.191-12.215s12.192 5.467 12.192 12.215v68.567c0 6.748-5.462 12.215-12.192 12.215z" fill="#FFE300" stroke="#000" stroke-width="3"/><path d="M99.099 292.903a165.28 165.28 0 0064.964 64.964l223.46-223.461a165.291 165.291 0 00-64.963-64.964L99.099 292.904z" fill="#FFEB7D"/><path d="M243.195 339.3c69.322 0 125.52-56.295 125.52-125.738S312.517 87.824 243.195 87.824c-69.323 0-125.521 56.295-125.521 125.738S173.872 339.3 243.195 339.3z" fill="#FFD000"/><path d="M288.54 215.262c4.055 0 7.238 3.6 6.694 7.63-3.718 27.453-27.208 48.613-55.628 48.613-28.426 0-51.915-21.16-55.629-48.613-.544-4.03 2.634-7.63 6.694-7.63h97.869z" fill="#920101"/><path d="M239.601 271.505c21.552 0 40.244-12.176 49.654-30.027-8.054-2.99-16.989-4.709-26.441-4.709-23.25 0-43.51 10.124-54.466 25.157 8.94 6.021 19.67 9.579 31.253 9.579z" fill="#FD0043"/><path d="M196.866 199.528c-5.863 0-10.615-4.76-10.615-10.633v-5.786c0-5.873 4.752-10.633 10.615-10.633s10.614 4.76 10.614 10.633v5.786c0 5.868-4.751 10.633-10.614 10.633z" fill="url(#paint0_linear_6106_9133)"/><path d="M280.647 199.528c-5.863 0-10.614-4.76-10.614-10.633v-5.786c0-5.873 4.751-10.633 10.614-10.633s10.615 4.76 10.615 10.633v5.786c0 5.868-4.752 10.633-10.615 10.633z" fill="url(#paint1_linear_6106_9133)"/><path d="M422.182 387.078a1.68 1.68 0 01-1.677-1.681v-74.634a1.68 1.68 0 011.677-1.681 1.68 1.68 0 011.678 1.681v74.634a1.68 1.68 0 01-1.678 1.681zm0-93.606a1.68 1.68 0 01-1.677-1.681v-14.645a1.68 1.68 0 011.677-1.681 1.68 1.68 0 011.678 1.681v14.645a1.68 1.68 0 01-1.678 1.681zm-54.255-164.745a1.68 1.68 0 01-1.678-1.681V80.023c0-.928.751-1.68 1.678-1.68a1.68 1.68 0 011.677 1.68v47.023a1.676 1.676 0 01-1.677 1.681zm0 290.658a1.68 1.68 0 01-1.678-1.681v-63.476c0-.927.751-1.68 1.678-1.68a1.68 1.68 0 011.677 1.68v63.476a1.676 1.676 0 01-1.677 1.681zm-78.174-313.514a1.68 1.68 0 01-1.678-1.68V6.078c0-.928.751-1.68 1.678-1.68a1.68 1.68 0 011.677 1.68v98.11a1.68 1.68 0 01-1.677 1.683zm0 44.469a1.68 1.68 0 01-1.678-1.681v-22.876a1.68 1.68 0 011.678-1.681 1.68 1.68 0 011.677 1.681v22.876a1.68 1.68 0 01-1.677 1.681zm-136.378 44.872a1.68 1.68 0 01-1.678-1.68v-87.408a1.68 1.68 0 011.678-1.681 1.68 1.68 0 011.678 1.681v87.408a1.68 1.68 0 01-1.678 1.68zm0-107.88a1.68 1.68 0 01-1.678-1.681V74.386c0-.928.752-1.68 1.678-1.68a1.68 1.68 0 011.678 1.68v11.265a1.68 1.68 0 01-1.678 1.68zm-61.049 291.21a1.68 1.68 0 01-1.678-1.68v-31.139a1.68 1.68 0 011.678-1.681 1.68 1.68 0 011.677 1.681v31.139c0 .927-.749 1.68-1.677 1.68zm0-51.977a1.68 1.68 0 01-1.678-1.681V214.196a1.68 1.68 0 011.678-1.681 1.68 1.68 0 011.677 1.681v110.688c0 .928-.749 1.681-1.677 1.681z" opacity=".5" fill="#fff"/><g filter="url(#filter0_d_6106_9133)"><path d="M60.524 213.432c33.278 0 60.256-27.024 60.256-60.36s-26.978-60.36-60.256-60.36S.27 119.736.27 153.072s26.977 60.36 60.255 60.36z" fill="#fff"/><path d="M119.28 153.072c0 32.51-26.308 58.86-58.756 58.86-32.447 0-58.755-26.35-58.755-58.86s26.308-58.86 58.755-58.86c32.448 0 58.756 26.35 58.756 58.86z" stroke="#000" stroke-width="3"/></g><path d="M68.751 149.19a1.628 1.628 0 01-1.15-2.776l8.019-8.027a1.624 1.624 0 112.296 2.299l-8.018 8.027c-.314.319-.73.477-1.147.477zm11.093 6.06c-.31 0-.622-.029-.932-.086l-6.434-1.188a1.625 1.625 0 01.589-3.197l6.434 1.188a1.89 1.89 0 001.68-.523l3.74-3.744a1.624 1.624 0 112.297 2.299l-3.74 3.744a5.145 5.145 0 01-3.633 1.507zm-14.866-10.199a1.624 1.624 0 01-1.543-2.128l2.936-9.031a1.886 1.886 0 00-.538-1.592l-3.74-3.744a1.624 1.624 0 112.296-2.299l3.74 3.744a5.146 5.146 0 011.42 4.571 1.72 1.72 0 01-.054.209l-2.974 9.151a1.625 1.625 0 01-1.543 1.119zm-17.149 25.087a1.625 1.625 0 01-1.15-2.775l8.018-8.027a1.624 1.624 0 112.296 2.298l-8.017 8.027a1.617 1.617 0 01-1.147.477zm9.3 9.31c-.416 0-.83-.159-1.15-.476a1.628 1.628 0 010-2.299l3.74-3.744a1.894 1.894 0 00.523-1.683l-1.187-6.442a1.626 1.626 0 011.302-1.893 1.625 1.625 0 011.891 1.304l1.187 6.442a5.146 5.146 0 01-1.42 4.571l-3.74 3.744c-.314.317-.73.476-1.146.476zm-15.194-18.08a5.137 5.137 0 01-3.634-1.507l-3.74-3.744a1.624 1.624 0 112.296-2.299l3.74 3.744a1.893 1.893 0 001.59.539l9.023-2.939a1.622 1.622 0 012.046 1.041 1.626 1.626 0 01-1.04 2.049l-9.141 2.977a1.66 1.66 0 01-.208.053c-.31.058-.622.086-.932.086z" fill="gray"/><path d="M71.949 172.696c5.1 0 9.233-4.139 9.233-9.244 0-5.105-4.134-9.244-9.233-9.244-5.1 0-9.234 4.139-9.234 9.244 0 5.105 4.134 9.244 9.234 9.244z" fill="#000"/><path d="M52.273 143.849l.095-.095c5.615-5.622 14.718-5.622 20.333 0l1.778 1.78c5.616 5.622 5.616 14.735 0 20.357l-.095.095c-5.615 5.622-14.718 5.622-20.333 0l-1.778-1.78c-5.616-5.62-5.616-14.735 0-20.357z" fill="red"/><path d="M74.384 165.986l.095-.095a14.351 14.351 0 001.681-2.026c-5.602 3.863-13.327 3.305-18.312-1.683l-1.778-1.78c-4.982-4.988-5.54-12.724-1.68-18.333-.711.49-1.39 1.049-2.024 1.683l-.095.095c-5.616 5.622-5.616 14.735 0 20.357l1.778 1.78c5.617 5.624 14.72 5.624 20.335.002z" fill="#D00000"/><path d="M81.202 170.945l-4.807-4.813a1.016 1.016 0 011.435-1.436l4.807 4.812-1.435 1.437zm-2.487 3.507c-.259 0-.52-.1-.717-.297l-4.807-4.813a1.016 1.016 0 011.435-1.436l4.807 4.812a1.017 1.017 0 01-.718 1.734z" fill="#000"/><path d="M75.102 159.87a1.013 1.013 0 01-.946-1.385c.056-.147 1.238-3.341-.75-7.176a1.016 1.016 0 111.802-.936c2.436 4.695.904 8.69.837 8.856-.157.397-.54.641-.943.641z" fill="#fff"/><g filter="url(#filter1_d_6106_9133)" stroke="#000"><path d="M454.5 351.49c0 24.193-19.578 43.802-43.723 43.802s-43.723-19.609-43.723-43.802c0-24.193 19.578-43.801 43.723-43.801S454.5 327.297 454.5 351.49z" fill="#FFD000" stroke-width="3"/><path d="M430.399 369.19h0c-1.471 1.965-4.718 3.975-8.788 5.657-3.983 1.645-8.668 2.941-13.033 3.564v-47.692h24.466c.927 0 1.68.754 1.68 1.685v21.976c0 4.858-1.458 10.984-4.325 14.81z" fill="#007B85"/><path d="M391.153 369.19h0c-2.867-3.826-4.325-9.952-4.325-14.81v-21.976c0-.931.753-1.685 1.681-1.685h39.142c.928 0 1.681.754 1.681 1.685v21.976c0 4.858-1.459 10.984-4.325 14.81h0c-3.029 4.044-8.175 8.015-16.927 9.24-8.752-1.225-13.898-5.196-16.927-9.24z" fill="#00CBB9"/><path d="M395.785 365.388h0c-1.029-1.373-1.818-3.264-2.349-5.277-.529-2.009-.793-4.105-.793-5.864v-16.101c0-.609.492-1.1 1.097-1.1h28.68c.605 0 1.097.491 1.097 1.1v16.101c0 1.759-.264 3.855-.794 5.863-.53 2.014-1.319 3.904-2.348 5.278-2.198 2.934-5.929 5.82-12.295 6.715-6.366-.895-10.097-3.781-12.295-6.715z" fill="#008F97"/><path d="M406.492 360.856s0 0 0 0h0z" fill="#00DECE"/></g><path d="M401.299 527.136H117.274c-5.953 0-10.237-6.881-8.568-13.76l10.264-42.306c1.113-4.582 4.603-7.733 8.569-7.733h263.493c3.966 0 7.456 3.149 8.568 7.733l10.265 42.306c1.671 6.879-2.613 13.76-8.566 13.76z" fill="#344AC2"/><mask id="a" style="mask-type:luminance" maskUnits="userSpaceOnUse" x="108" y="463" width="303" height="65"><path d="M401.299 527.136H117.274c-5.953 0-10.237-6.881-8.568-13.76l10.264-42.306c1.113-4.582 4.603-7.733 8.569-7.733h263.493c3.966 0 7.456 3.149 8.568 7.733l10.265 42.306c1.671 6.879-2.613 13.76-8.566 13.76z" fill="#fff"/></mask><g mask="url(#a)" fill="#33CAD1"><path d="M209.839 548.504c-.587 0-1.148-.403-1.409-1.088l-14.106-37.137c-.182-.474-.578-.781-1.011-.781H97.107c-.856 0-1.548-.833-1.548-1.865 0-1.029.692-1.862 1.548-1.862h96.206c1.642 0 3.143 1.161 3.827 2.96l14.106 37.136c.356.938.014 2.042-.764 2.47a1.35 1.35 0 01-.643.167zM318.16 504.76h-95.511c-1.756 0-3.363-1.241-4.093-3.163l-15.652-41.202c-.356-.937-.014-2.041.763-2.469.778-.429 1.697-.016 2.053.921l15.652 41.201c.228.6.728.987 1.277.987h95.511c.511 0 .982-.335 1.227-.873l19.001-41.44c.412-.902 1.355-1.228 2.104-.732.75.498 1.021 1.631.608 2.533l-19 41.44c-.792 1.725-2.3 2.797-3.94 2.797zm-135.904-19.123H96.753c-.855 0-1.548-.833-1.548-1.865 0-1.029.693-1.862 1.548-1.862h85.506c.527 0 .815-.406.916-.579.099-.174.311-.642.123-1.237l-10.967-34.662c-.304-.961.096-2.04.895-2.406.799-.368 1.694.116 1.998 1.079l10.968 34.665c.492 1.558.318 3.305-.467 4.679s-2.083 2.188-3.469 2.188zm149.543 62.867c-.214 0-.433-.054-.643-.17-.778-.427-1.12-1.534-.764-2.469l14.106-37.137c.684-1.798 2.185-2.96 3.827-2.96h96.206c.856 0 1.548.833 1.548 1.863 0 1.029-.692 1.864-1.548 1.864h-96.206c-.433 0-.832.307-1.011.782l-14.106 37.137c-.261.686-.822 1.09-1.409 1.09z"/></g><path opacity=".8" d="M409.867 513.376l-10.265-42.306c-1.112-4.582-4.602-7.733-8.568-7.733h-44.238c3.966 0 7.456 3.149 8.568 7.733l10.265 42.306c1.668 6.879-2.616 13.76-8.568 13.76h44.238c5.952 0 10.237-6.881 8.568-13.76z" fill="#181675"/><path d="M417.547 537.19H102.571a4.677 4.677 0 01-4.673-4.681v-.281a4.677 4.677 0 014.673-4.681h314.976a4.678 4.678 0 014.673 4.681v.281a4.679 4.679 0 01-4.673 4.681z" fill="#221B80"/><defs><linearGradient id="paint0_linear_6106_9133" x1="196.867" y1="175.477" x2="196.867" y2="203.322" gradientUnits="userSpaceOnUse"><stop stop-color="#414042"/><stop offset=".1" stop-color="#313032"/><stop offset=".277" stop-color="#1B1B1C"/><stop offset=".47" stop-color="#0C0C0C"/><stop offset=".691" stop-color="#030303"/><stop offset="1"/></linearGradient><linearGradient id="paint1_linear_6106_9133" x1="280.647" y1="175.477" x2="280.647" y2="203.322" gradientUnits="userSpaceOnUse"><stop stop-color="#414042"/><stop offset=".1" stop-color="#313032"/><stop offset=".277" stop-color="#1B1B1C"/><stop offset=".47" stop-color="#0C0C0C"/><stop offset=".691" stop-color="#030303"/><stop offset="1"/></linearGradient><filter id="filter0_d_6106_9133" x=".269" y="92.712" width="124.511" height="124.72" filterUnits="userSpaceOnUse" color-interpolation-filters="sRGB"><feFlood flood-opacity="0" result="BackgroundImageFix"/><feColorMatrix in="SourceAlpha" values="0 0 0 0 0 0 0 0 0 0 0 0 0 0 0 0 0 0 127 0" result="hardAlpha"/><feOffset dx="4" dy="4"/><feComposite in2="hardAlpha" operator="out"/><feColorMatrix values="0 0 0 0 0 0 0 0 0 0 0 0 0 0 0 0 0 0 1 0"/><feBlend in2="BackgroundImageFix" result="effect1_dropShadow_6106_9133"/><feBlend in="SourceGraphic" in2="effect1_dropShadow_6106_9133" result="shape"/></filter><filter id="filter1_d_6106_9133" x="365.554" y="306.189" width="94.446" height="94.603" filterUnits="userSpaceOnUse" color-interpolation-filters="sRGB"><feFlood flood-opacity="0" result="BackgroundImageFix"/><feColorMatrix in="SourceAlpha" values="0 0 0 0 0 0 0 0 0 0 0 0 0 0 0 0 0 0 127 0" result="hardAlpha"/><feOffset dx="4" dy="4"/><feComposite in2="hardAlpha" operator="out"/><feColorMatrix values="0 0 0 0 0 0 0 0 0 0 0 0 0 0 0 0 0 0 1 0"/><feBlend in2="BackgroundImageFix" result="effect1_dropShadow_6106_9133"/><feBlend in="SourceGraphic" in2="effect1_dropShadow_6106_9133" result="shape"/></filter></defs></svg>