<svg width="201" height="167" viewBox="0 0 201 167" fill="none" xmlns="http://www.w3.org/2000/svg"><g clip-path="url(#clip0_6009_4503)"><path d="M30.024 136v12.585H61.04a6.292 6.292 0 000-12.584H30.024V136z" fill="url(#paint0_linear_6009_4503)"/><path d="M63.316 148.136a6.293 6.293 0 003.654-8.114l-8.211-21.663a6.293 6.293 0 00-11.768 4.461l8.21 21.662a6.292 6.292 0 008.115 3.654z" fill="url(#paint1_linear_6009_4503)"/><path d="M23.125 142.602c.07-2.808 1.886-5.292 4.558-6.156A9.156 9.156 0 0130.51 136v12.585H16.557a1.345 1.345 0 01-1.345-1.345 4.636 4.636 0 014.638-4.637h3.275v-.001z" fill="#FF265D"/><path d="M32.874 136h-2.85v12.585h2.85V136z" fill="#FF679F"/><path d="M17.534 136v12.585H48.55a6.292 6.292 0 000-12.584H17.534V136z" fill="url(#paint2_linear_6009_4503)"/><path d="M50.825 148.136a6.293 6.293 0 003.654-8.114l-8.21-21.663A6.293 6.293 0 0034.5 122.82l8.211 21.662a6.293 6.293 0 008.114 3.654z" fill="url(#paint3_linear_6009_4503)"/><path d="M10.636 142.602c.07-2.808 1.885-5.292 4.558-6.156A9.156 9.156 0 0118.02 136v12.585H2.456a1.345 1.345 0 01-1.345-1.345 4.636 4.636 0 014.638-4.637h4.887v-.001z" fill="#FF3C82"/><path d="M21.322 136h-3.788v12.585h3.788V136z" fill="#FF7FAD"/><path d="M20.249 77.607l2.882-34.125a8.71 8.71 0 0117.36 1.466l-2.411 28.54c-.81 9.586-9.238 16.702-18.825 15.892l-2.982-.251c2.755-.917 3.732-8.934 3.976-11.522z" fill="url(#paint4_linear_6009_4503)"/><path d="M28.985 135.985h36.53c.947 0 1.716-.768 1.716-1.716l-2.388-11.211c-1-4.698-1.222-4.14-1.996-8.881-1.548-9.494-9.787-16.74-19.719-16.74-.138 0-.275.001-.412.004-12.33.25-21.306 11.819-18.737 23.88l3.29 12.949c0 .948.768 1.715 1.716 1.715z" fill="url(#paint5_linear_6009_4503)"/><path d="M30.231 104.139H60.87a1.926 1.926 0 001.926-1.926V91.647c0-9.29-7.532-16.823-16.823-16.823h-.843c-9.29 0-16.823 7.532-16.823 16.823v10.567c0 1.064.862 1.925 1.925 1.925z" fill="#fff"/><path d="M45.55 98.598c7.653 0 14.138-4.988 16.392-11.887a17.22 17.22 0 01.853 5.358v10.413c0 .915-.742 1.658-1.658 1.658H29.964a1.659 1.659 0 01-1.659-1.658V92.069c0-1.871.302-3.671.853-5.358 2.255 6.9 8.74 11.887 16.393 11.887z" fill="url(#paint6_linear_6009_4503)"/><path d="M47.402 87.495a.951.951 0 100-1.903.951.951 0 000 1.903zm0 3.777a.951.951 0 100-1.903.951.951 0 000 1.903z" fill="#FFE6F2"/><path d="M47.088 83.078a7.415 7.415 0 007.416-7.415v-5.005a7.415 7.415 0 10-14.83 0v5.005a7.415 7.415 0 007.414 7.415z" fill="#FF958E"/><path d="M48.011 76.606c11.931 0 21.603-9.672 21.603-21.603 0-11.93-9.672-21.603-21.603-21.603-11.931 0-21.603 9.672-21.603 21.603 0 11.931 9.672 21.603 21.603 21.603z" fill="url(#paint7_linear_6009_4503)"/><path opacity=".29" d="M37.585 41.708c1.24-.952 1.826-2.271 1.307-2.947-.519-.676-1.945-.453-3.185.5-1.24.951-1.826 2.27-1.307 2.947.519.676 1.945.452 3.185-.5z" fill="#fff"/><path d="M61.366 63.877a4.325 4.325 0 108.62.728 4.325 4.325 0 00-8.62-.728z" fill="url(#paint8_linear_6009_4503)"/><path d="M26.907 60.966a4.325 4.325 0 108.619.728 4.325 4.325 0 00-8.62-.728z" fill="url(#paint9_linear_6009_4503)"/><path d="M46.741 80.5c9.56.807 17.965-6.288 18.772-15.849l.296-3.497c.807-9.56-6.288-17.964-15.849-18.772-9.56-.807-17.964 6.288-18.772 15.849l-.295 3.497c-.808 9.56 6.288 17.964 15.848 18.772z" fill="url(#paint10_linear_6009_4503)"/><path d="M66.13 70.192a1.34 1.34 0 100-2.68 1.34 1.34 0 000 2.68zM30.128 67.15a1.34 1.34 0 100-2.679 1.34 1.34 0 000 2.68z" fill="#FFE6F2"/><path d="M30.32 56.914l2.817.239c8.25.697 15.5-5.425 16.198-13.674l.093-1.11-2.817-.238c-8.249-.697-15.5 5.425-16.197 13.674l-.094 1.11z" fill="url(#paint11_linear_6009_4503)"/><path d="M49.43 64.34a1.853 1.853 0 002.002-1.69l.123-1.446a1.853 1.853 0 00-3.691-.312l-.123 1.447a1.852 1.852 0 001.69 2.002z" fill="url(#paint12_linear_6009_4503)"/><path d="M45.057 65.413a.57.57 0 00-.617.593 4.74 4.74 0 009.358.79.57.57 0 00-.51-.687l-8.231-.696z" fill="#CF1138"/><path d="M48.774 70.483a4.736 4.736 0 01-3.962-2.874 6.407 6.407 0 012.256-.207c1.956.165 3.588 1.159 4.403 2.5a4.73 4.73 0 01-2.697.58z" fill="#FF2C60"/><path d="M55.848 62.074c.715.06 1.343-.47 1.403-1.185l.087-1.035a1.298 1.298 0 10-2.587-.218l-.088 1.035c-.06.715.47 1.342 1.185 1.403z" fill="url(#paint13_linear_6009_4503)"/><path d="M43.426 61.025a1.3 1.3 0 001.404-1.185l.087-1.035a1.298 1.298 0 10-2.588-.218l-.087 1.035c-.06.715.47 1.342 1.184 1.403z" fill="url(#paint14_linear_6009_4503)"/><path d="M58.36 55.888a.865.865 0 00.796-1.335c-.622-.953-1.722-1.582-2.943-1.685a4.062 4.062 0 00-2.083.367.864.864 0 10.742 1.562 2.34 2.34 0 011.197-.206c.694.058 1.307.398 1.64.908a.864.864 0 00.652.389zm-17.317-1.463a.865.865 0 01-.56-1.45c.774-.833 1.963-1.27 3.183-1.167a4.071 4.071 0 011.993.711.865.865 0 01-.992 1.416 2.346 2.346 0 00-1.145-.404c-.694-.058-1.356.173-1.77.62a.864.864 0 01-.709.274z" fill="#FF8011"/><path d="M63.95 66.278c.162-1.93-1.585-3.653-3.903-3.85-2.318-.195-4.33 1.21-4.492 3.14-.163 1.93 1.584 3.653 3.902 3.85 2.318.196 4.328-1.21 4.492-3.14z" fill="url(#paint15_radial_6009_4503)"/><path opacity=".2" d="M58.86 64.49c.015-.172-.14-.325-.345-.343-.206-.017-.384.108-.398.28-.015.173.14.326.345.344.205.017.384-.108.398-.28z" fill="#fff"/><path d="M43.397 64.542c.163-1.93-1.584-3.653-3.903-3.85-2.318-.195-4.33 1.21-4.492 3.14-.163 1.93 1.584 3.654 3.902 3.85 2.318.196 4.33-1.21 4.493-3.14z" fill="url(#paint16_radial_6009_4503)"/><path opacity=".2" d="M38.308 62.755c.014-.172-.14-.325-.346-.343-.205-.017-.383.109-.398.28-.014.173.14.327.346.344.205.017.383-.108.398-.28z" fill="#fff"/><path d="M40.747 89.62c0-4.7-2.264-8.872-5.76-11.485-4.126 3.066-6.799 7.977-6.799 13.511v10.994a1.5 1.5 0 001.5 1.499h11.059V89.621z" fill="url(#paint17_linear_6009_4503)"/><path d="M138.088 85.6l-16.15 14.316-10.087-11.38 16.15-14.315a7.604 7.604 0 0110.087 11.38z" fill="url(#paint18_linear_6009_4503)"/><path d="M123.14 98.842l-10.087-11.38-3.403 3.017 10.087 11.379 3.403-3.016z" fill="#A2E2FF"/><path d="M88.886 75.885a1.992 1.992 0 012.178-1.788l5.406.457a1.992 1.992 0 11-.389 3.965l-5.407-.456a1.993 1.993 0 01-1.788-2.178z" fill="url(#paint19_linear_6009_4503)"/><path d="M89.653 69.39a1.993 1.993 0 012.785-.431l4.704 3.445a1.993 1.993 0 01-2.354 3.216l-4.705-3.446a1.993 1.993 0 01-.43-2.785z" fill="url(#paint20_linear_6009_4503)"/><path d="M93.09 65.32a1.992 1.992 0 012.789.403l3.489 4.673a1.991 1.991 0 11-3.193 2.384l-3.489-4.673a1.992 1.992 0 01.404-2.788z" fill="url(#paint21_linear_6009_4503)"/><path d="M98.044 62.98a1.993 1.993 0 012.599 1.088l2.212 5.396a1.991 1.991 0 11-3.686 1.511l-2.212-5.395a1.991 1.991 0 011.087-2.6z" fill="url(#paint22_linear_6009_4503)"/><path d="M105.328 64.068a1.993 1.993 0 011.657 2.28l-.912 5.76a1.992 1.992 0 01-3.936-.623l.912-5.76a1.992 1.992 0 012.279-1.657z" fill="url(#paint23_linear_6009_4503)"/><path d="M109.937 100.565L94.923 80.458a7.604 7.604 0 0112.184-9.099l15.015 20.107a7.605 7.605 0 01-1.543 10.642 7.605 7.605 0 01-10.642-1.543z" fill="url(#paint24_linear_6009_4503)"/><path d="M175.345 145.469v2.768h-36.383a8.28 8.28 0 010-16.561h22.59c7.618-.001 13.793 6.175 13.793 13.793z" fill="#000002"/><path d="M134.634 147.769a8.281 8.281 0 01-6.32-9.859l5.117-23.39a8.281 8.281 0 0116.179 3.539l-5.117 23.39a8.28 8.28 0 01-9.859 6.32z" fill="#000002"/><path d="M175.88 140.355c-.092-3.699-2.485-6.972-6.006-8.112a12.065 12.065 0 00-3.725-.588v16.582h16.935a1.77 1.77 0 001.771-1.771 6.11 6.11 0 00-6.111-6.111h-2.864z" fill="#1B123F"/><path d="M169.342 131.597v16.64h-6.386v-16.64c0-.601.487-1.088 1.088-1.088h4.211c.601 0 1.087.487 1.087 1.088z" fill="#402291"/><path d="M191.6 145.469v2.768h-36.384a8.28 8.28 0 01-8.28-8.28 8.28 8.28 0 018.28-8.281h22.59c7.618-.001 13.794 6.175 13.794 13.793z" fill="#251364"/><path d="M151.084 147.81a8.28 8.28 0 01-6.417-9.796l4.886-23.439a8.28 8.28 0 1116.212 3.379l-4.886 23.44a8.278 8.278 0 01-9.795 6.416z" fill="#251364"/><path d="M192.135 140.355c-.092-3.699-2.485-6.972-6.006-8.112a12.065 12.065 0 00-3.725-.588v16.582h16.935a1.77 1.77 0 001.771-1.771 6.11 6.11 0 00-6.111-6.111h-2.864z" fill="#322358"/><path d="M185.597 131.597v16.64h-6.387v-16.64c0-.601.487-1.088 1.088-1.088h4.211c.601 0 1.088.487 1.088 1.088z" fill="#5832AD"/><path d="M154.451 125.207h-11.072c-8.024 0-14.529-6.505-14.529-14.528v-4.475h40.129v4.475c.001 8.023-6.504 14.528-14.528 14.528z" fill="#251364"/><path d="M169.154 117.917h-39.72a2.339 2.339 0 01-2.339-2.338V85.644c0-10.287 8.34-18.626 18.626-18.626h7.144c10.287 0 18.626 8.34 18.626 18.626v29.936a2.336 2.336 0 01-2.337 2.337z" fill="url(#paint25_linear_6009_4503)"/><path d="M149.021 98.482l-2.111 1.851a.713.713 0 01-.934.005l-2.069-1.775a.711.711 0 01-.248-.53l-.296-18.6 5.606-.089.296 18.59a.716.716 0 01-.244.548z" fill="#FF2D2D"/><path d="M143.412 82.57c.05.054.098.11.152.162a3.647 3.647 0 005.452-.43l-.042-2.656-5.606.09.044 2.833z" fill="#FF1F0C"/><path d="M148.513 76.286a3.493 3.493 0 11-4.858 5.015 3.493 3.493 0 014.858-5.015z" fill="#FF2D2D"/><path d="M142.592 79.874l3.969-4.405 3.741 5.03a9.34 9.34 0 00-2.417-18.095 9.34 9.34 0 00-10.063 8.556 9.343 9.343 0 004.77 8.914z" fill="#89DAFB"/><path d="M146.9 75.743a8.152 8.152 0 01-8.151-8.151v-5.46a8.152 8.152 0 0116.303 0v5.46a8.152 8.152 0 01-8.152 8.151z" fill="#FF958E"/><path d="M83.381 40.159H73.105v-8.745a8.745 8.745 0 018.745-8.745h1.531a8.745 8.745 0 010 17.49z" fill="#FF4974"/><path d="M82.468 35.366a.419.419 0 01-.297-.121l-3.258-3.262a2.205 2.205 0 010-3.103 2.197 2.197 0 013.103 0l.452.453.453-.453a2.197 2.197 0 013.103 0c.85.86.85 2.244 0 3.103l-3.258 3.262a.419.419 0 01-.298.121z" fill="#fff"/><path d="M105.099 150.497a3.322 3.322 0 01-3.322-3.322v-20.068a3.322 3.322 0 016.644 0v20.068a3.322 3.322 0 01-3.322 3.322z" fill="#FFC200"/><path d="M103.555 135.233c23.072 0 41.774-18.703 41.774-41.775 0-23.07-18.702-41.774-41.774-41.774-23.07 0-41.774 18.703-41.774 41.775 0 23.071 18.703 41.774 41.774 41.774z" fill="#FF9D00"/><path d="M90.366 150.497a3.323 3.323 0 01-3.322-3.322v-20.068a3.323 3.323 0 016.644 0v20.068a3.323 3.323 0 01-3.322 3.322z" fill="#FFC200"/><path d="M46.775 127.431a2.91 2.91 0 01-2.449-3.636 42.419 42.419 0 012.504-6.888 44.174 44.174 0 015.698-9.17 44.455 44.455 0 0110.01-9.105 2.907 2.907 0 113.22 4.841 38.658 38.658 0 00-8.614 7.8 38.375 38.375 0 00-4.944 7.875 36.693 36.693 0 00-2.255 6.141 2.908 2.908 0 01-3.17 2.142z" fill="#FFD300"/><path d="M94.635 135.21c23.071 0 41.774-18.703 41.774-41.775 0-23.07-18.703-41.774-41.774-41.774-23.072 0-41.775 18.703-41.775 41.774 0 23.072 18.703 41.775 41.775 41.775z" fill="#FFD000"/><path opacity=".8" d="M57.966 113.46a41.965 41.965 0 0016.45 16.537l56.887-56.588a41.96 41.96 0 00-16.451-16.537L57.966 113.46z" fill="#FFEB64"/><path d="M94.635 124.76c17.3 0 31.325-14.025 31.325-31.325 0-17.3-14.025-31.324-31.325-31.324-17.3 0-31.324 14.024-31.324 31.324 0 17.3 14.024 31.325 31.324 31.325z" fill="#FFC200"/><path d="M107.559 93.889a1.686 1.686 0 011.666 1.905c-.946 6.836-6.821 12.092-13.914 12.074-7.094-.019-12.941-5.306-13.852-12.147a1.685 1.685 0 011.676-1.895l24.424.063z" fill="#E70000"/><path d="M95.31 107.868c5.378.014 10.051-3.008 12.411-7.448a18.984 18.984 0 00-6.596-1.19c-5.802-.015-10.864 2.494-13.61 6.232a13.95 13.95 0 007.795 2.406z" fill="#FF0040"/><path d="M84.694 89.908a2.649 2.649 0 01-2.642-2.656l.004-1.441a2.649 2.649 0 115.299.014l-.005 1.441a2.65 2.65 0 01-2.656 2.642z" fill="url(#paint26_linear_6009_4503)"/><path d="M105.601 89.963a2.649 2.649 0 01-2.642-2.656l.004-1.44a2.649 2.649 0 115.298.013l-.004 1.442a2.65 2.65 0 01-2.656 2.641z" fill="url(#paint27_linear_6009_4503)"/><path d="M139.68 99.999a2.905 2.905 0 014.252-1.186 33.841 33.841 0 015.203 4.333 32.785 32.785 0 015.845 8.097c1.87 3.675 3.025 7.709 3.43 11.989.151 1.594-.981 3.052-2.574 3.225a2.906 2.906 0 01-3.208-2.62c-.327-3.521-1.257-6.827-2.765-9.829a26.924 26.924 0 00-4.719-6.628 27.942 27.942 0 00-4.455-3.741 2.909 2.909 0 01-1.009-3.64z" fill="#FFD300"/><path opacity=".8" d="M66.356 95.503c.045-17.3 14.107-31.287 31.407-31.242a31.187 31.187 0 0116.418 4.695 31.192 31.192 0 00-19.462-6.846c-17.3-.045-31.362 13.941-31.407 31.242-.03 11.274 5.901 21.172 14.824 26.712-7.202-5.757-11.806-14.624-11.78-24.56z" fill="#FFAF00"/><path d="M119.305 118.276a1.994 1.994 0 01-1.451-2.416l1.245-5.281a1.992 1.992 0 113.866.966l-1.245 5.281a1.992 1.992 0 01-2.415 1.45z" fill="url(#paint28_linear_6009_4503)"/><path d="M112.992 116.565a1.992 1.992 0 01-.017-2.818l4.098-4.148a1.992 1.992 0 112.834 2.799l-4.098 4.149a1.99 1.99 0 01-2.817.018z" fill="url(#paint29_linear_6009_4503)"/><path d="M109.469 112.568a1.992 1.992 0 01.809-2.699l5.133-2.766a1.992 1.992 0 011.891 3.507l-5.134 2.766a1.99 1.99 0 01-2.699-.808z" fill="url(#paint30_linear_6009_4503)"/><path d="M107.882 107.326a1.993 1.993 0 011.458-2.412l5.661-1.397a1.993 1.993 0 11.954 3.869l-5.661 1.397a1.994 1.994 0 01-2.412-1.457z" fill="url(#paint31_linear_6009_4503)"/><path d="M110.026 100.279a1.994 1.994 0 012.498-1.304l5.564 1.747a1.992 1.992 0 01-1.194 3.801l-5.563-1.747a1.992 1.992 0 01-1.305-2.497z" fill="url(#paint32_linear_6009_4503)"/><path d="M146.806 101.072l-22.091 11.904a7.603 7.603 0 01-10.3-3.087 7.602 7.602 0 013.087-10.3l22.091-11.903a7.601 7.601 0 0110.299 3.086 7.603 7.603 0 01-3.086 10.3z" fill="url(#paint33_linear_6009_4503)"/><path d="M165.053 91.24l-18.998 10.237-7.213-13.387 18.998-10.237a7.602 7.602 0 0110.3 3.086 7.605 7.605 0 01-3.087 10.3z" fill="url(#paint34_linear_6009_4503)"/><path d="M147.48 100.712l-7.214-13.386-4.004 2.157 7.214 13.386 4.004-2.157z" fill="#A2E2FF"/><path d="M132.217 108.937l-7.214-13.386-3.817 2.056 7.214 13.387 3.817-2.057z" fill="#32003D"/><path d="M126.785 106.522a3.298 3.298 0 100-6.596 3.298 3.298 0 000 6.596z" fill="#D6C0E7"/><path d="M146.88 68.759l-3.646.549c-10.692 1.611-20.666-5.75-22.277-16.443l-.608-4.039c-1.673-11.101 5.971-21.457 17.072-23.13l2.031-.306c11.174-1.683 21.599 6.01 23.282 17.187l.589 3.906c1.612 10.69-5.75 20.665-16.443 22.276z" fill="url(#paint35_linear_6009_4503)"/><path d="M159.532 54.261a3.42 3.42 0 002.872-3.89l-.055-.36a3.418 3.418 0 00-3.89-2.87.997.997 0 00-.837 1.133l.777 5.15a.995.995 0 001.133.837z" fill="url(#paint36_linear_6009_4503)"/><path d="M123.314 52.406a3.419 3.419 0 00-2.871 3.89l.054.359a3.42 3.42 0 003.89 2.871.995.995 0 00.837-1.133l-.776-5.15a.998.998 0 00-1.134-.837z" fill="url(#paint37_linear_6009_4503)"/><path d="M144.749 74.01c9.69-1.46 16.362-10.5 14.903-20.19l-.954-6.331c-1.46-9.69-10.498-16.363-20.19-14.903-9.69 1.46-16.362 10.498-14.903 20.19l.954 6.33c1.46 9.692 10.5 16.364 20.19 14.904z" fill="url(#paint38_linear_6009_4503)"/><path d="M146.547 31.205l-17.649 2.65a3.649 3.649 0 101.084 7.216l21.366-3.22a1.167 1.167 0 011.327.98l.491 3.257a6.012 6.012 0 006.84 5.048 1.167 1.167 0 00.98-1.327l-.668-4.432c-.996-6.611-7.16-11.164-13.771-10.172z" fill="url(#paint39_linear_6009_4503)"/><path opacity=".29" d="M154.248 32.325c.432-.647-.179-1.815-1.366-2.608-1.188-.794-2.501-.913-2.933-.266-.433.647.179 1.814 1.366 2.608s2.5.913 2.933.266z" fill="#fff"/><path d="M141 57.578a2.377 2.377 0 001.997-2.704l-.239-1.584a2.376 2.376 0 10-4.7.709l.238 1.583A2.376 2.376 0 00141 57.578z" fill="url(#paint40_linear_6009_4503)"/><path d="M135.24 60.193a.368.368 0 00-.303.443 6.426 6.426 0 0012.685-1.91.369.369 0 00-.42-.335l-11.962 1.802z" fill="#CF1138"/><path d="M145.513 62.316l-3.711.56a3.44 3.44 0 00-2.791 2.45c.981.36 2.062.487 3.168.32a6.415 6.415 0 004.677-3.267 3.447 3.447 0 00-1.343-.063z" fill="#FF2C60"/><path d="M137.644 61.85l9.915-1.494a6.365 6.365 0 00.064-1.63.37.37 0 00-.421-.335l-10.91 1.643.139.92c.088.583.631.983 1.213.895z" fill="#fff"/><path d="M134.063 54.904a1.394 1.394 0 01-1.586-1.17l-.166-1.104a1.393 1.393 0 112.757-.416l.166 1.104a1.395 1.395 0 01-1.171 1.586z" fill="url(#paint41_linear_6009_4503)"/><path d="M147.389 52.896a1.393 1.393 0 01-1.586-1.17l-.166-1.104a1.393 1.393 0 112.756-.415l.166 1.103a1.394 1.394 0 01-1.17 1.586z" fill="url(#paint42_linear_6009_4503)"/><path d="M130.226 48.69a.928.928 0 01-.946-1.374c.601-1.062 1.735-1.815 3.034-2.011a4.367 4.367 0 012.258.248.928.928 0 11-.684 1.725 2.5 2.5 0 00-1.297-.136c-.739.111-1.373.517-1.695 1.088a.93.93 0 01-.67.46zm18.452-2.78a.928.928 0 00.499-1.592c-.887-.84-2.193-1.224-3.493-1.027a4.367 4.367 0 00-2.085.9.928.928 0 101.163 1.448 2.508 2.508 0 011.198-.513c.74-.112 1.465.09 1.939.54a.936.936 0 00.779.245z" fill="#BF0C01"/><path d="M76.041 101.922a5.615 5.615 0 01-4.59 6.478l-20.592 3.509a5.615 5.615 0 01-1.887-11.069l20.591-3.51a5.614 5.614 0 016.478 4.592z" fill="url(#paint43_linear_6009_4503)"/><path d="M67.084 109.212l-1.886-11.07-3.828.653 1.886 11.07 3.828-.653z" fill="#FF8011"/><path d="M64.147 106.49a2.953 2.953 0 100-5.906 2.953 2.953 0 000 5.906z" fill="#FFCD5C"/><path d="M74.554 93.754a1.658 1.658 0 01.572 2.273L72.86 99.93a1.658 1.658 0 01-2.845-1.701l2.265-3.903a1.657 1.657 0 012.273-.572z" fill="url(#paint44_linear_6009_4503)"/><path d="M79.166 96.64c.436.804.137 1.81-.667 2.246l-4.263 2.313a1.658 1.658 0 01-1.58-2.914l4.263-2.312a1.657 1.657 0 012.247.667z" fill="url(#paint45_linear_6009_4503)"/><path d="M81.005 100.671a1.657 1.657 0 01-1.295 1.953l-4.753.962a1.657 1.657 0 11-.658-3.248l4.753-.963a1.657 1.657 0 011.953 1.296z" fill="url(#paint46_linear_6009_4503)"/><path d="M81.003 105.227a1.657 1.657 0 01-1.742 1.568l-4.843-.255a1.658 1.658 0 01.174-3.31l4.843.255a1.656 1.656 0 011.568 1.742z" fill="url(#paint47_linear_6009_4503)"/><path d="M77.596 110.317a1.657 1.657 0 01-2.303.434l-4.006-2.733a1.657 1.657 0 111.867-2.737l4.006 2.734c.756.515.952 1.546.436 2.302z" fill="url(#paint48_linear_6009_4503)"/><path d="M29.72 95.334l15.437 15.234a.712.712 0 001.007-.038l9.286-10.01a.712.712 0 00-.039-1.007L39.975 84.28A7.54 7.54 0 1029.72 95.334z" fill="#fff"/><path d="M27.26 92.925l16.511 17.076a.393.393 0 00.556.004l11.4-11.234a.393.393 0 000-.56L38.981 81.273a8.264 8.264 0 00-11.72 11.653z" fill="url(#paint49_linear_6009_4503)"/></g><defs><linearGradient id="paint0_linear_6009_4503" x1="48.679" y1="75.101" x2="48.679" y2="146.96" gradientUnits="userSpaceOnUse"><stop stop-color="#FFDDCD"/><stop offset=".711" stop-color="#FFCBC6"/><stop offset="1" stop-color="#FFB2A1"/></linearGradient><linearGradient id="paint1_linear_6009_4503" x1="56.98" y1="75.101" x2="56.98" y2="146.96" gradientUnits="userSpaceOnUse"><stop stop-color="#FFDDCD"/><stop offset=".711" stop-color="#FFCBC6"/><stop offset="1" stop-color="#FFB2A1"/></linearGradient><linearGradient id="paint2_linear_6009_4503" x1="68.844" y1="142.292" x2="11.818" y2="142.292" gradientUnits="userSpaceOnUse"><stop stop-color="#FFDDCD"/><stop offset=".711" stop-color="#FFCBC6"/><stop offset="1" stop-color="#FFB2A1"/></linearGradient><linearGradient id="paint3_linear_6009_4503" x1="41.468" y1="123.464" x2="61.678" y2="176.789" gradientUnits="userSpaceOnUse"><stop stop-color="#FFDDCD"/><stop offset=".711" stop-color="#FFCBC6"/><stop offset="1" stop-color="#FFB2A1"/></linearGradient><linearGradient id="paint4_linear_6009_4503" x1="25.252" y1="30.828" x2="30.915" y2="95.008" gradientUnits="userSpaceOnUse"><stop stop-color="#FFC310"/><stop offset=".182" stop-color="#FFBD10"/><stop offset=".423" stop-color="#FFAC11"/><stop offset=".697" stop-color="#FF9111"/><stop offset=".993" stop-color="#FF6B12"/><stop offset="1" stop-color="#FF6A12"/></linearGradient><linearGradient id="paint5_linear_6009_4503" x1="45.384" y1="103.216" x2="45.384" y2="135.296" gradientUnits="userSpaceOnUse"><stop stop-color="#110242"/><stop offset="1" stop-color="#140148"/></linearGradient><linearGradient id="paint6_linear_6009_4503" x1="45.551" y1="86.711" x2="45.551" y2="104.14" gradientUnits="userSpaceOnUse"><stop stop-color="#FFE6F2" stop-opacity=".5"/><stop offset="1" stop-color="#FFE6F2"/></linearGradient><linearGradient id="paint7_linear_6009_4503" x1="51.339" y1="15.605" x2="46.549" y2="72.289" gradientUnits="userSpaceOnUse"><stop stop-color="#FFC310"/><stop offset="1" stop-color="#FF9710"/></linearGradient><linearGradient id="paint8_linear_6009_4503" x1="59.161" y1="63.695" x2="69.582" y2="64.576" gradientUnits="userSpaceOnUse"><stop stop-color="#FF9CA4"/><stop offset=".288" stop-color="#FFA0A6"/><stop offset=".593" stop-color="#FFADAC"/><stop offset=".905" stop-color="#FFC2B6"/><stop offset="1" stop-color="#FFCABA"/></linearGradient><linearGradient id="paint9_linear_6009_4503" x1="35.524" y1="61.698" x2="26.904" y2="60.97" gradientUnits="userSpaceOnUse"><stop stop-color="#FF9CA4"/><stop offset=".288" stop-color="#FFA0A6"/><stop offset=".593" stop-color="#FFADAC"/><stop offset=".905" stop-color="#FFC2B6"/><stop offset="1" stop-color="#FFCABA"/></linearGradient><linearGradient id="paint10_linear_6009_4503" x1="49.897" y1="43.127" x2="46.721" y2="80.712" gradientUnits="userSpaceOnUse"><stop stop-color="#FFDDCD"/><stop offset=".711" stop-color="#FFCBC6"/><stop offset="1" stop-color="#FFB2A1"/></linearGradient><linearGradient id="paint11_linear_6009_4503" x1="42.809" y1="14.884" x2="38.02" y2="71.568" gradientUnits="userSpaceOnUse"><stop stop-color="#FFC310"/><stop offset="1" stop-color="#FF9710"/></linearGradient><linearGradient id="paint12_linear_6009_4503" x1="49.348" y1="65.305" x2="49.855" y2="59.307" gradientUnits="userSpaceOnUse"><stop stop-color="#FF9CA4"/><stop offset=".288" stop-color="#FFA0A6"/><stop offset=".593" stop-color="#FFADAC"/><stop offset=".905" stop-color="#FFC2B6"/><stop offset="1" stop-color="#FFCABA"/></linearGradient><linearGradient id="paint13_linear_6009_4503" x1="56.118" y1="58.857" x2="55.803" y2="62.587" gradientUnits="userSpaceOnUse"><stop stop-color="#3D3C3E"/><stop offset=".079" stop-color="#313032"/><stop offset=".26" stop-color="#1B1B1C"/><stop offset=".458" stop-color="#0C0C0C"/><stop offset=".684" stop-color="#030303"/><stop offset="1"/></linearGradient><linearGradient id="paint14_linear_6009_4503" x1="43.697" y1="57.807" x2="43.382" y2="61.537" gradientUnits="userSpaceOnUse"><stop stop-color="#3D3C3E"/><stop offset=".079" stop-color="#313032"/><stop offset=".26" stop-color="#1B1B1C"/><stop offset=".458" stop-color="#0C0C0C"/><stop offset=".684" stop-color="#030303"/><stop offset="1"/></linearGradient><linearGradient id="paint17_linear_6009_4503" x1="34.467" y1="49.027" x2="34.467" y2="103.872" gradientUnits="userSpaceOnUse"><stop stop-color="#5E52CD"/><stop offset=".061" stop-color="#584BC4"/><stop offset=".26" stop-color="#4937AD"/><stop offset=".471" stop-color="#3E299C"/><stop offset=".705" stop-color="#382192"/><stop offset="1" stop-color="#361E8F"/></linearGradient><linearGradient id="paint18_linear_6009_4503" x1="147.967" y1="65.502" x2="111.907" y2="99.308" gradientUnits="userSpaceOnUse"><stop stop-color="#6BCCF6"/><stop offset=".283" stop-color="#68C6F7"/><stop offset=".662" stop-color="#60B5F9"/><stop offset="1" stop-color="#55A0FB"/></linearGradient><linearGradient id="paint19_linear_6009_4503" x1="115.69" y1="105.908" x2="79.899" y2="57.98" gradientUnits="userSpaceOnUse"><stop stop-color="#FFCDC3"/><stop offset=".679" stop-color="#FFBFBA"/><stop offset="1" stop-color="#FFAFAD"/></linearGradient><linearGradient id="paint20_linear_6009_4503" x1="113.817" y1="107.971" x2="84.356" y2="55.909" gradientUnits="userSpaceOnUse"><stop stop-color="#FFCDC3"/><stop offset=".679" stop-color="#FFBFBA"/><stop offset="1" stop-color="#FFAFAD"/></linearGradient><linearGradient id="paint21_linear_6009_4503" x1="118.869" y1="104.863" x2="86.524" y2="54.542" gradientUnits="userSpaceOnUse"><stop stop-color="#FFCDC3"/><stop offset=".679" stop-color="#FFBFBA"/><stop offset="1" stop-color="#FFAFAD"/></linearGradient><linearGradient id="paint22_linear_6009_4503" x1="124.084" y1="101.095" x2="89.071" y2="52.592" gradientUnits="userSpaceOnUse"><stop stop-color="#FFCDC3"/><stop offset=".679" stop-color="#FFBFBA"/><stop offset="1" stop-color="#FFAFAD"/></linearGradient><linearGradient id="paint23_linear_6009_4503" x1="127.004" y1="98.955" x2="91.213" y2="51.027" gradientUnits="userSpaceOnUse"><stop stop-color="#FFCDC3"/><stop offset=".679" stop-color="#FFBFBA"/><stop offset="1" stop-color="#FFAFAD"/></linearGradient><linearGradient id="paint24_linear_6009_4503" x1="121.008" y1="102.667" x2="85.217" y2="54.738" gradientUnits="userSpaceOnUse"><stop stop-color="#FFCDC3"/><stop offset=".679" stop-color="#FFBFBA"/><stop offset="1" stop-color="#FFAFAD"/></linearGradient><linearGradient id="paint25_linear_6009_4503" x1="149.294" y1="56.482" x2="149.294" y2="119.379" gradientUnits="userSpaceOnUse"><stop stop-color="#6BCCF6"/><stop offset=".283" stop-color="#68C6F7"/><stop offset=".662" stop-color="#60B5F9"/><stop offset="1" stop-color="#55A0FB"/></linearGradient><linearGradient id="paint26_linear_6009_4503" x1="84.71" y1="83.917" x2="84.691" y2="90.854" gradientUnits="userSpaceOnUse"><stop stop-color="#3B393C"/><stop offset=".067" stop-color="#312F32"/><stop offset=".25" stop-color="#1B1A1C"/><stop offset=".451" stop-color="#0C0C0C"/><stop offset=".68" stop-color="#030303"/><stop offset="1"/></linearGradient><linearGradient id="paint27_linear_6009_4503" x1="105.617" y1="83.972" x2="105.598" y2="90.909" gradientUnits="userSpaceOnUse"><stop stop-color="#3B393C"/><stop offset=".067" stop-color="#312F32"/><stop offset=".25" stop-color="#1B1A1C"/><stop offset=".451" stop-color="#0C0C0C"/><stop offset=".68" stop-color="#030303"/><stop offset="1"/></linearGradient><linearGradient id="paint28_linear_6009_4503" x1="114.118" y1="117.704" x2="181.534" y2="74.827" gradientUnits="userSpaceOnUse"><stop stop-color="#FFDDCF"/><stop offset=".679" stop-color="#FFBFBA"/><stop offset="1" stop-color="#FFAFAD"/></linearGradient><linearGradient id="paint29_linear_6009_4503" x1="112.69" y1="115.46" x2="180.106" y2="72.583" gradientUnits="userSpaceOnUse"><stop stop-color="#FFDDCF"/><stop offset=".679" stop-color="#FFBFBA"/><stop offset="1" stop-color="#FFAFAD"/></linearGradient><linearGradient id="paint30_linear_6009_4503" x1="110.643" y1="112.241" x2="178.059" y2="69.365" gradientUnits="userSpaceOnUse"><stop stop-color="#FFDDCF"/><stop offset=".679" stop-color="#FFBFBA"/><stop offset="1" stop-color="#FFAFAD"/></linearGradient><linearGradient id="paint31_linear_6009_4503" x1="108.462" y1="108.812" x2="175.878" y2="65.935" gradientUnits="userSpaceOnUse"><stop stop-color="#FFDDCF"/><stop offset=".679" stop-color="#FFBFBA"/><stop offset="1" stop-color="#FFAFAD"/></linearGradient><linearGradient id="paint32_linear_6009_4503" x1="107.063" y1="106.613" x2="174.479" y2="63.736" gradientUnits="userSpaceOnUse"><stop stop-color="#FFDDCF"/><stop offset=".679" stop-color="#FFBFBA"/><stop offset="1" stop-color="#FFAFAD"/></linearGradient><linearGradient id="paint33_linear_6009_4503" x1="111.445" y1="113.501" x2="178.861" y2="70.624" gradientUnits="userSpaceOnUse"><stop stop-color="#FFDDCF"/><stop offset=".679" stop-color="#FFBFBA"/><stop offset="1" stop-color="#FFAFAD"/></linearGradient><linearGradient id="paint34_linear_6009_4503" x1="161.097" y1="81.817" x2="121.359" y2="116.427" gradientUnits="userSpaceOnUse"><stop stop-color="#59D3F7"/><stop offset=".217" stop-color="#5EC7F9"/><stop offset=".681" stop-color="#65B4FE"/><stop offset="1" stop-color="#68ADFF"/></linearGradient><linearGradient id="paint35_linear_6009_4503" x1="138.452" y1="25.228" x2="144.645" y2="66.325" gradientUnits="userSpaceOnUse"><stop stop-color="#C11601"/><stop offset=".289" stop-color="#B11901"/><stop offset=".849" stop-color="#882100"/><stop offset="1" stop-color="#7C2300"/></linearGradient><linearGradient id="paint36_linear_6009_4503" x1="163.594" y1="50.003" x2="158.701" y2="50.74" gradientUnits="userSpaceOnUse"><stop stop-color="#FFC9C0"/><stop offset=".656" stop-color="#FF9FA1"/><stop offset="1" stop-color="#FF878F"/></linearGradient><linearGradient id="paint37_linear_6009_4503" x1="120.465" y1="56.471" x2="124.83" y2="55.813" gradientUnits="userSpaceOnUse"><stop stop-color="#FFC9C0"/><stop offset=".656" stop-color="#FF9FA1"/><stop offset="1" stop-color="#FF878F"/></linearGradient><linearGradient id="paint38_linear_6009_4503" x1="138.402" y1="31.92" x2="144.752" y2="74.059" gradientUnits="userSpaceOnUse"><stop stop-color="#FFDDCD"/><stop offset=".711" stop-color="#FFCBC6"/><stop offset="1" stop-color="#FFB2A1"/></linearGradient><linearGradient id="paint39_linear_6009_4503" x1="140.837" y1="24.879" x2="147.027" y2="65.959" gradientUnits="userSpaceOnUse"><stop stop-color="#C11601"/><stop offset=".289" stop-color="#B11901"/><stop offset=".849" stop-color="#882100"/><stop offset="1" stop-color="#7C2300"/></linearGradient><linearGradient id="paint40_linear_6009_4503" x1="139.939" y1="50.571" x2="140.977" y2="57.456" gradientUnits="userSpaceOnUse"><stop stop-color="#FFC9C0"/><stop offset=".322" stop-color="#FFB7B3"/><stop offset=".964" stop-color="#FF8A91"/><stop offset="1" stop-color="#FF878F"/></linearGradient><linearGradient id="paint41_linear_6009_4503" x1="133.487" y1="51.114" x2="134.04" y2="54.785" gradientUnits="userSpaceOnUse"><stop stop-color="#3D3C3E"/><stop offset=".079" stop-color="#313032"/><stop offset=".26" stop-color="#1B1B1C"/><stop offset=".458" stop-color="#0C0C0C"/><stop offset=".684" stop-color="#030303"/><stop offset="1"/></linearGradient><linearGradient id="paint42_linear_6009_4503" x1="146.812" y1="49.106" x2="147.366" y2="52.777" gradientUnits="userSpaceOnUse"><stop stop-color="#3D3C3E"/><stop offset=".079" stop-color="#313032"/><stop offset=".26" stop-color="#1B1B1C"/><stop offset=".458" stop-color="#0C0C0C"/><stop offset=".684" stop-color="#030303"/><stop offset="1"/></linearGradient><linearGradient id="paint43_linear_6009_4503" x1="76.708" y1="101.807" x2="49.512" y2="106.441" gradientUnits="userSpaceOnUse"><stop stop-color="#FFDDCD"/><stop offset=".711" stop-color="#FFCBC6"/><stop offset="1" stop-color="#FFB2A1"/></linearGradient><linearGradient id="paint44_linear_6009_4503" x1="79.957" y1="95.867" x2="45.57" y2="101.727" gradientUnits="userSpaceOnUse"><stop stop-color="#FFDDCD"/><stop offset=".711" stop-color="#FFCBC6"/><stop offset="1" stop-color="#FFB2A1"/></linearGradient><linearGradient id="paint45_linear_6009_4503" x1="80.283" y1="97.781" x2="45.897" y2="103.641" gradientUnits="userSpaceOnUse"><stop stop-color="#FFDDCD"/><stop offset=".711" stop-color="#FFCBC6"/><stop offset="1" stop-color="#FFB2A1"/></linearGradient><linearGradient id="paint46_linear_6009_4503" x1="80.804" y1="100.831" x2="46.417" y2="106.691" gradientUnits="userSpaceOnUse"><stop stop-color="#FFDDCD"/><stop offset=".711" stop-color="#FFCBC6"/><stop offset="1" stop-color="#FFB2A1"/></linearGradient><linearGradient id="paint47_linear_6009_4503" x1="81.386" y1="104.25" x2="47" y2="110.11" gradientUnits="userSpaceOnUse"><stop stop-color="#FFDDCD"/><stop offset=".711" stop-color="#FFCBC6"/><stop offset="1" stop-color="#FFB2A1"/></linearGradient><linearGradient id="paint48_linear_6009_4503" x1="81.808" y1="106.722" x2="47.421" y2="112.582" gradientUnits="userSpaceOnUse"><stop stop-color="#FFDDCD"/><stop offset=".711" stop-color="#FFCBC6"/><stop offset="1" stop-color="#FFB2A1"/></linearGradient><linearGradient id="paint49_linear_6009_4503" x1="26.895" y1="80.919" x2="49.742" y2="104.105" gradientUnits="userSpaceOnUse"><stop stop-color="#5E52CD"/><stop offset=".061" stop-color="#584BC4"/><stop offset=".26" stop-color="#4937AD"/><stop offset=".471" stop-color="#3E299C"/><stop offset=".705" stop-color="#382192"/><stop offset="1" stop-color="#361E8F"/></linearGradient><radialGradient id="paint15_radial_6009_4503" cx="0" cy="0" r="1" gradientUnits="userSpaceOnUse" gradientTransform="matrix(-4.19776 -.3547 .29527 -3.49428 59.75 65.925)"><stop stop-color="#FF9E88" stop-opacity=".8"/><stop offset=".295" stop-color="#FFA28C" stop-opacity=".564"/><stop offset=".607" stop-color="#FFAF98" stop-opacity=".314"/><stop offset=".926" stop-color="#FFC4AC" stop-opacity=".059"/><stop offset="1" stop-color="#FFCAB2" stop-opacity="0"/></radialGradient><radialGradient id="paint16_radial_6009_4503" cx="0" cy="0" r="1" gradientUnits="userSpaceOnUse" gradientTransform="matrix(-4.19776 -.3547 .29527 -3.49428 39.198 64.188)"><stop stop-color="#FF9E88" stop-opacity=".8"/><stop offset=".295" stop-color="#FFA28C" stop-opacity=".564"/><stop offset=".607" stop-color="#FFAF98" stop-opacity=".314"/><stop offset=".926" stop-color="#FFC4AC" stop-opacity=".059"/><stop offset="1" stop-color="#FFCAB2" stop-opacity="0"/></radialGradient><clipPath id="clip0_6009_4503"><path fill="#fff" transform="translate(.667)" d="M0 0h200v166.667H0z"/></clipPath></defs></svg>