<svg width="200" height="167" viewBox="0 0 200 167" fill="none" xmlns="http://www.w3.org/2000/svg"><path d="M120.246 34.435l-19.432-19.432a4.116 4.116 0 00-5.821 0L75.56 34.435c-2.594 2.593-.757 7.028 2.91 7.028h7.471v64.651a2.242 2.242 0 002.242 2.242h19.438a2.242 2.242 0 002.242-2.242V41.463h7.471c3.667 0 5.504-4.435 2.911-7.028zm71.874 63.419l-19.432-19.432a4.117 4.117 0 00-5.822 0l-19.432 19.432c-2.593 2.594-.756 7.028 2.911 7.028h7.471v46.233a2.24 2.24 0 002.241 2.242h19.439a2.24 2.24 0 002.241-2.242v-46.233h7.471c3.668 0 5.504-4.434 2.912-7.028zM52.565 69.555l-19.43-19.432a4.117 4.117 0 00-5.823 0L7.881 69.555c-2.594 2.594-.757 7.028 2.91 7.028h7.471v74.532a2.241 2.241 0 002.242 2.242h19.438a2.241 2.241 0 002.242-2.242V76.583h7.47c3.668 0 5.505-4.434 2.911-7.028z" fill="#00A06C"/><path d="M112.065 152.248H83.64a2.695 2.695 0 010-5.389h28.425a2.695 2.695 0 110 5.389z" fill="#2F2B7C"/><path d="M67.032 108.355c-.108 0-.218-.008-.329-.024-.034-.003-.075-.004-.122-.007-.974-.053-3.937-.214-7.424-2.087-4.266-2.29-7.804-6.257-10.516-11.792a2.277 2.277 0 014.088-2.004c2.284 4.662 5.172 7.954 8.581 9.784 2.594 1.393 4.718 1.509 5.518 1.553.269.014.481.026.73.085a2.277 2.277 0 01-.526 4.492z" fill="#FFD000"/><path d="M102.087 134.688c18.34 0 33.206-14.867 33.206-33.206 0-18.34-14.866-33.206-33.206-33.206-18.339 0-33.206 14.867-33.206 33.206 0 18.339 14.867 33.206 33.206 33.206z" fill="#FFAC00"/><path d="M94.996 134.688c18.339 0 33.206-14.867 33.206-33.206 0-18.34-14.867-33.206-33.206-33.206-18.34 0-33.206 14.867-33.206 33.206 0 18.339 14.866 33.206 33.206 33.206z" fill="#FFE300"/><path d="M135.073 130.813h-7.169V127c0-.583.473-1.056 1.056-1.056h5.057c.583 0 1.056.473 1.056 1.056v3.813z" stroke="#1D1D2A" stroke-width="25.823" stroke-miterlimit="10"/><path d="M141.3 143.994h-18.737a1.525 1.525 0 01-1.525-1.525v-12.582c0-.842.683-1.525 1.525-1.525H141.3c.842 0 1.525.683 1.525 1.525v12.582c0 .842-.683 1.525-1.525 1.525z" fill="url(#paint0_linear_6009_4678)"/><path d="M139.049 129.903c0-.842.682-1.524 1.524-1.524h-17.995c-.842 0-1.524.682-1.524 1.524v7.948c0 .842.682 1.524 1.524 1.524h14.945c.842 0 1.525-.682 1.525-1.524v-7.948h.001z" fill="#1E1E2A"/><path d="M141.3 144.01h-.743a1.525 1.525 0 01-1.525-1.525v-12.582c0-.842.683-1.524 1.525-1.524h.743c.842 0 1.525.682 1.525 1.524v12.582c0 .842-.683 1.525-1.525 1.525z" fill="#0C0C11"/><path d="M130.955 140.311h-2.287a.212.212 0 01-.212-.212v-1.45c0-.117.095-.213.212-.213h2.287c.117 0 .212.096.212.213v1.45a.212.212 0 01-.212.212z" fill="#464564"/><path d="M131.469 127.48a2.247 2.247 0 01-2.247-2.248v-18.636a2.247 2.247 0 114.495 0v18.636a2.247 2.247 0 01-2.248 2.248z" fill="#FFD000"/><path d="M104.108 146.858a2.715 2.715 0 01-2.715-2.715v-13.577a2.716 2.716 0 115.43 0v13.577c0 1.5-1.215 2.715-2.715 2.715zm-14.398 0a2.715 2.715 0 01-2.716-2.715v-13.577a2.716 2.716 0 115.43 0v13.577c0 1.5-1.215 2.715-2.715 2.715z" fill="#FFE300"/><path d="M65.89 117.476a33.358 33.358 0 0013.112 13.111l45.099-45.099a33.358 33.358 0 00-13.111-13.111l-45.1 45.099z" fill="#FFEB7D"/><path d="M94.996 126.381c13.752 0 24.899-11.148 24.899-24.899 0-13.752-11.147-24.9-24.9-24.9-13.75 0-24.899 11.148-24.899 24.9 0 13.751 11.148 24.899 24.9 24.899z" fill="#FFD000"/><path d="M103.992 101.82c.805 0 1.436.713 1.327 1.511-.737 5.436-5.396 9.626-11.034 9.626-5.638 0-10.299-4.19-11.035-9.626a1.34 1.34 0 011.328-1.511h19.414z" fill="#920101"/><path d="M94.284 112.956c4.275 0 7.983-2.411 9.85-5.946a15.09 15.09 0 00-5.245-.932c-4.612 0-8.631 2.004-10.805 4.981a11.07 11.07 0 006.2 1.897z" fill="#FD0043"/><path d="M85.807 98.703a2.105 2.105 0 01-2.105-2.106v-1.145a2.105 2.105 0 114.21 0v1.145a2.105 2.105 0 01-2.105 2.106z" fill="url(#paint1_linear_6009_4678)"/><path d="M102.427 98.703a2.106 2.106 0 01-2.106-2.106v-1.145a2.106 2.106 0 014.211 0v1.145a2.105 2.105 0 01-2.105 2.106z" fill="url(#paint2_linear_6009_4678)"/><defs><linearGradient id="paint0_linear_6009_4678" x1="131.931" y1="137.713" x2="131.931" y2="143.862" gradientUnits="userSpaceOnUse"><stop stop-color="#0C0C11"/><stop offset=".018" stop-color="#0C0C12"/><stop offset=".482" stop-color="#13131C"/><stop offset="1" stop-color="#151520"/></linearGradient><linearGradient id="paint1_linear_6009_4678" x1="85.807" y1="93.941" x2="85.807" y2="99.455" gradientUnits="userSpaceOnUse"><stop stop-color="#414042"/><stop offset=".1" stop-color="#313032"/><stop offset=".277" stop-color="#1B1B1C"/><stop offset=".47" stop-color="#0C0C0C"/><stop offset=".691" stop-color="#030303"/><stop offset="1"/></linearGradient><linearGradient id="paint2_linear_6009_4678" x1="102.426" y1="93.941" x2="102.426" y2="99.455" gradientUnits="userSpaceOnUse"><stop stop-color="#414042"/><stop offset=".1" stop-color="#313032"/><stop offset=".277" stop-color="#1B1B1C"/><stop offset=".47" stop-color="#0C0C0C"/><stop offset=".691" stop-color="#030303"/><stop offset="1"/></linearGradient></defs></svg>