<svg width="201" height="167" viewBox="0 0 201 167" fill="none" xmlns="http://www.w3.org/2000/svg"><path opacity=".2" d="M100.355 159.141c41.049 0 74.325-33.277 74.325-74.326 0-41.048-33.276-74.325-74.325-74.325S26.03 43.767 26.03 84.815c0 41.049 33.276 74.326 74.325 74.326z" fill="url(#paint0_linear_6009_4714)"/><path d="M103.887 122.588c21.426 0 38.796-17.37 38.796-38.797 0-21.426-17.37-38.796-38.796-38.796-21.427 0-38.797 17.37-38.797 38.796 0 21.427 17.37 38.797 38.797 38.797z" fill="#FF8D00"/><path d="M104.31 136.763a3.085 3.085 0 01-3.085-3.084v-18.637a3.085 3.085 0 116.169 0v18.637a3.084 3.084 0 01-3.084 3.084zm-13.683 0a3.084 3.084 0 01-3.084-3.084v-18.637a3.085 3.085 0 116.169 0v18.637a3.084 3.084 0 01-3.085 3.084zM64.219 94.014c1.575.033 2.684 1.57 2.208 3.071l-.017.05a15.777 15.777 0 01-2.122 4.226c-1.477 2.106-3.473 3.938-5.931 5.447-2.932 1.8-6.541 3.142-10.727 3.991-1.443.292-2.899-.582-3.234-2.015a2.699 2.699 0 012.096-3.263c10.717-2.154 13.832-7.216 14.736-9.875.34-1 1.279-1.67 2.333-1.647l.658.015zm89.73 15.867c-1.273 0-2.871-.169-4.674-.729-3.773-1.171-9.285-4.385-14.117-13.039a2.699 2.699 0 114.713-2.632c3.137 5.618 6.942 9.254 11.005 10.515 2.705.84 4.569.344 4.587.339a2.7 2.7 0 111.579 5.162c-.199.062-1.336.384-3.093.384z" fill="#FFD400"/><path d="M95.601 122.566c21.427 0 38.797-17.37 38.797-38.797 0-21.427-17.37-38.796-38.797-38.796-21.427 0-38.797 17.37-38.797 38.796 0 21.427 17.37 38.797 38.797 38.797z" fill="#FFE700"/><path d="M61.547 102.367a38.968 38.968 0 0015.278 15.358l52.831-52.553a38.97 38.97 0 00-15.278-15.359l-52.83 52.554z" fill="#FFEE72"/><path d="M95.601 112.861c16.067 0 29.091-13.025 29.091-29.092 0-16.066-13.024-29.091-29.09-29.091-16.068 0-29.092 13.025-29.092 29.091 0 16.067 13.024 29.092 29.091 29.092z" fill="#FFCE00"/><path d="M106.11 84.191c.94.003 1.675.838 1.547 1.77-.878 6.349-6.336 11.23-12.923 11.212-6.587-.017-12.019-4.927-12.863-11.28a1.565 1.565 0 011.556-1.761l22.683.06z" fill="#E10000"/><path d="M94.734 97.173c4.995.014 9.335-2.792 11.527-6.916a17.622 17.622 0 00-6.126-1.106c-5.388-.014-10.09 2.316-12.638 5.787a12.937 12.937 0 007.237 2.235z" fill="#FF0021"/><path d="M84.874 80.494a2.46 2.46 0 01-2.453-2.467l.003-1.338a2.46 2.46 0 114.92.014l-.003 1.338a2.46 2.46 0 01-2.467 2.453z" fill="url(#paint1_linear_6009_4714)"/><path d="M104.291 80.545a2.46 2.46 0 01-2.454-2.466l.004-1.338a2.46 2.46 0 114.92.013l-.004 1.338a2.46 2.46 0 01-2.466 2.453z" fill="url(#paint2_linear_6009_4714)"/><path opacity=".8" d="M69.338 85.69c.043-16.066 13.101-29.057 29.168-29.014a28.953 28.953 0 0115.247 4.36 28.966 28.966 0 00-18.075-6.358C79.61 54.635 66.552 67.626 66.51 83.693c-.028 10.47 5.48 19.662 13.768 24.808-6.688-5.348-10.964-13.582-10.94-22.81z" fill="#FF9F00"/><path d="M100.355 161.193c-10.31 0-20.313-2.02-29.73-6.003a76.122 76.122 0 01-24.276-16.367 76.124 76.124 0 01-16.368-24.277c-3.983-9.417-6.003-19.42-6.003-29.73 0-10.31 2.02-20.313 6.003-29.73a76.113 76.113 0 0116.367-24.277 76.113 76.113 0 0124.277-16.367c9.418-3.983 19.42-6.003 29.73-6.003 10.31 0 20.313 2.02 29.73 6.003a76.11 76.11 0 0124.277 16.367 76.094 76.094 0 0116.367 24.277c3.984 9.417 6.003 19.42 6.003 29.73 0 10.31-2.02 20.313-6.003 29.73-3.846 9.095-9.353 17.263-16.367 24.277a76.1 76.1 0 01-24.277 16.367c-9.418 3.983-19.42 6.003-29.73 6.003zm0-148.652c-9.758 0-19.223 1.911-28.132 5.679A72.034 72.034 0 0049.25 33.71a72.036 72.036 0 00-15.49 22.974c-3.767 8.909-5.678 18.374-5.678 28.132 0 9.758 1.91 19.223 5.679 28.132a72.027 72.027 0 0015.49 22.974 72.038 72.038 0 0022.974 15.49c8.91 3.768 18.374 5.679 28.132 5.679 9.758 0 19.223-1.911 28.132-5.679a72.033 72.033 0 0022.974-15.49 72.033 72.033 0 0015.49-22.974c3.768-8.909 5.679-18.374 5.679-28.132 0-9.758-1.911-19.223-5.679-28.132a72.03 72.03 0 00-15.49-22.974 72.038 72.038 0 00-22.974-15.49c-8.91-3.768-18.375-5.679-28.133-5.679z" fill="url(#paint3_linear_6009_4714)"/><path d="M51.814 51.386a2.564 2.564 0 01-2.056-4.093 62.952 62.952 0 0118.2-16.506 2.564 2.564 0 112.641 4.396A57.847 57.847 0 0053.875 50.35a2.56 2.56 0 01-2.06 1.035zm-4.881 7.729a2.564 2.564 0 01-2.263-3.766c.291-.548.594-1.099.901-1.638a2.564 2.564 0 014.457 2.536c-.282.495-.56 1.001-.826 1.504a2.567 2.567 0 01-2.269 1.364z" fill="#fff"/><path d="M173.554 33.175h-17.862V67.93c.087.013.172.027.261.039 6.39-.881 13.766-3.775 15.996-6.746 2.112-2.815 3.166-7.274 3.166-10.793V34.735c0-.862-.7-1.56-1.561-1.56z" fill="#007C86"/><path d="M155.691 33.175h-14.002a1.56 1.56 0 00-1.561 1.56v15.696c0 3.519 1.054 7.979 3.166 10.793 2.229 2.97 6.008 5.865 12.397 6.746 6.39-.881 10.169-3.775 12.398-6.746 2.112-2.815 3.166-7.274 3.166-10.793V34.735a1.56 1.56 0 00-1.561-1.56h-14.003z" fill="#00CBB9"/><path d="M155.691 37.693h-10.259c-.631 0-1.143.512-1.143 1.144v11.5c0 2.578.772 6.11 2.319 8.172 1.633 2.177 4.402 4.297 9.083 4.943 4.682-.646 7.45-2.766 9.084-4.943 1.547-2.062 2.319-5.594 2.319-8.172v-11.5c0-.632-.512-1.144-1.143-1.144h-10.26z" fill="#008F98"/><path d="M150.892 47.081l3.411 3.412a.349.349 0 00.493 0l6.817-6.817a.35.35 0 01.494 0l1.914 1.914a.35.35 0 010 .493l-9.225 9.225a.349.349 0 01-.493 0l-5.819-5.819a.35.35 0 010-.493l1.914-1.914a.35.35 0 01.494 0z" fill="#00DECE"/><defs><linearGradient id="paint0_linear_6009_4714" x1="48.68" y1="33.141" x2="149.329" y2="133.79" gradientUnits="userSpaceOnUse"><stop stop-color="#00F4F0"/><stop offset="1" stop-color="#00DACD" stop-opacity=".2"/></linearGradient><linearGradient id="paint1_linear_6009_4714" x1="84.888" y1="74.93" x2="84.871" y2="81.373" gradientUnits="userSpaceOnUse"><stop stop-color="#3B393C"/><stop offset=".067" stop-color="#312F32"/><stop offset=".25" stop-color="#1B1A1C"/><stop offset=".451" stop-color="#0C0C0C"/><stop offset=".68" stop-color="#030303"/><stop offset="1"/></linearGradient><linearGradient id="paint2_linear_6009_4714" x1="104.305" y1="74.981" x2="104.288" y2="81.424" gradientUnits="userSpaceOnUse"><stop stop-color="#3B393C"/><stop offset=".067" stop-color="#312F32"/><stop offset=".25" stop-color="#1B1A1C"/><stop offset=".451" stop-color="#0C0C0C"/><stop offset=".68" stop-color="#030303"/><stop offset="1"/></linearGradient><linearGradient id="paint3_linear_6009_4714" x1="154.361" y1="30.809" x2="46.349" y2="138.822" gradientUnits="userSpaceOnUse"><stop stop-color="#fff"/><stop offset="1" stop-color="#fff" stop-opacity=".4"/></linearGradient></defs></svg>