<svg width="161" height="137" viewBox="0 0 161 137" fill="none" xmlns="http://www.w3.org/2000/svg"><path d="M68.276 112.882c30.794 0 55.758-24.963 55.758-55.758 0-30.794-24.964-55.758-55.758-55.758-30.794 0-55.758 24.964-55.758 55.758 0 30.795 24.963 55.758 55.758 55.758z" fill="#6232D6"/><path d="M62.678 136.294a4.434 4.434 0 01-4.308-3.402c-2.958-12.354 1.464-31.896 1.656-32.724a4.436 4.436 0 018.646 1.986c-.06.258-4.14 18.372-1.674 28.668a4.437 4.437 0 01-3.276 5.346 4.512 4.512 0 01-1.044.126zm35.388-2.178a4.433 4.433 0 01-4.104-2.754c-5.802-14.136-5.304-27.642-5.28-28.212a4.433 4.433 0 014.62-4.242 4.43 4.43 0 014.242 4.608c-.006.132-.414 12.21 4.62 24.474a4.434 4.434 0 01-2.418 5.784 4.25 4.25 0 01-1.68.342zm49.248-63.119c-1.242 0-2.562-.06-3.936-.204-7.452-.792-17.982-4.29-25.854-16.458a3.878 3.878 0 011.152-5.364 3.878 3.878 0 015.364 1.152c11.772 18.192 30.522 12.294 31.314 12.036a3.884 3.884 0 014.896 2.46 3.873 3.873 0 01-2.436 4.896c-.222.072-4.5 1.482-10.5 1.482z" fill="#7A75F5"/><path d="M80.156 112.037c30.794 0 55.758-24.964 55.758-55.759 0-30.794-24.964-55.757-55.758-55.757-30.794 0-55.758 24.963-55.758 55.758 0 30.794 24.964 55.758 55.758 55.758z" fill="#8E88FF"/><path d="M130.808 79.613a56.012 56.012 0 01-20.406 23.52L29.504 32.945A56.009 56.009 0 0149.91 9.425l80.898 70.188z" fill="#AFADFF"/><path d="M80.156 98.093c23.093 0 41.814-18.721 41.814-41.814 0-23.094-18.721-41.814-41.814-41.814s-41.814 18.72-41.814 41.814c0 23.093 18.72 41.814 41.814 41.814z" fill="#6969FF"/><path d="M3.884 105.515a3.882 3.882 0 01-2.082-7.158c12.384-7.848 15.03-26.22 15.06-26.406a3.879 3.879 0 017.686 1.038c-.12.9-3.12 22.122-18.594 31.926a3.85 3.85 0 01-2.07.6z" fill="#7A75F5"/><path d="M65.012 46.972c-3.336 0-6.102-2.73-6.228-2.855a1.344 1.344 0 011.902-1.896c.036.036 2.43 2.37 4.782 2.04 1.224-.175 2.316-1.099 3.24-2.742a1.34 1.34 0 012.34 1.308c-1.356 2.424-3.114 3.803-5.226 4.092a6.26 6.26 0 01-.81.053zm25.71-2.675c-3.336 0-6.102-2.73-6.228-2.856a1.344 1.344 0 011.902-1.896c.024.024 2.418 2.37 4.782 2.04 1.224-.175 2.316-1.093 3.24-2.742a1.34 1.34 0 012.34 1.307c-1.356 2.425-3.114 3.805-5.226 4.093-.27.035-.54.053-.81.053z" fill="#160649"/><path d="M81.338 63.538a6.942 6.942 0 100-13.883 6.942 6.942 0 000 13.883z" fill="#421FBF"/><path opacity=".5" d="M121.862 53.32c-1.62-22.854-21.318-40.103-44.124-38.784 20.646 1.225 37.68 17.599 39.18 38.785 1.632 23.034-15.714 43.032-38.748 44.663-.18.013-.36.025-.54.03 1.8.109 3.63.103 5.484-.03 23.034-1.631 40.38-21.623 38.748-44.663z" fill="#421FBF"/></svg>