<svg width="234" height="191" viewBox="0 0 234 191" fill="none" xmlns="http://www.w3.org/2000/svg"><path d="M126.119 158.316c43.393 0 78.57-35.177 78.57-78.57 0-43.393-35.177-78.57-78.57-78.57-43.393 0-78.57 35.177-78.57 78.57 0 43.393 35.177 78.57 78.57 78.57z" fill="#FA1194"/><path d="M124.595 190.344a6.245 6.245 0 01-6.228-5.838c-1.53-23.232-3.078-40.632-3.09-40.806a6.25 6.25 0 015.664-6.78c3.432-.312 6.474 2.232 6.78 5.664.018.174 1.578 17.706 3.114 41.094a6.242 6.242 0 01-5.826 6.642c-.138.024-.276.024-.414.024zm-50.766-4.992a6.266 6.266 0 01-3.21-.888 6.25 6.25 0 01-2.142-8.574c9.204-15.342 14.322-30.942 14.37-31.098a6.252 6.252 0 017.872-4.014 6.247 6.247 0 014.02 7.866c-.222.69-5.574 17.064-15.54 33.672a6.253 6.253 0 01-5.37 3.036zm-31.524-87.39c-11.988 0-21.192-4.344-27.408-8.7C5.62 82.764.947 74.88.749 74.544a5.462 5.462 0 011.962-7.476 5.468 5.468 0 017.47 1.944c.612 1.032 15.072 24.624 44.406 16.2a5.466 5.466 0 013.018 10.506c-5.52 1.578-10.62 2.244-15.3 2.244z" fill="#F3B"/><path d="M109.355 157.632c43.393 0 78.57-35.177 78.57-78.57 0-43.393-35.177-78.57-78.57-78.57-43.393 0-78.57 35.177-78.57 78.57 0 43.393 35.177 78.57 78.57 78.57z" fill="#FF40E1"/><path d="M38.999 114.078a78.92 78.92 0 0029.736 32.256L179.699 44.046a78.92 78.92 0 00-29.736-32.256L38.999 114.078z" fill="#FF69F0"/><path d="M109.355 137.982c32.54 0 58.92-26.379 58.92-58.92 0-32.54-26.38-58.92-58.92-58.92-32.54 0-58.92 26.38-58.92 58.92 0 32.541 26.38 58.92 58.92 58.92z" fill="#FF24C4"/><path d="M136.529 69.534c2.358.096 4.11 2.376 3.696 4.83-2.844 16.734-17.004 29.142-33.504 28.47-16.5-.672-29.61-14.19-31.08-31.098-.216-2.478 1.722-4.614 4.074-4.518l56.814 2.316z" fill="#83003E"/><path d="M94.889 59.328a4.19 4.19 0 01-4.014-4.356l.03-.75a4.19 4.19 0 014.356-4.014 4.19 4.19 0 014.014 4.356l-.03.75a4.19 4.19 0 01-4.356 4.014zm25.254.534a4.19 4.19 0 01-4.014-4.356l.03-.75a4.19 4.19 0 014.356-4.014 4.19 4.19 0 014.014 4.356l-.03.75a4.19 4.19 0 01-4.356 4.014z" fill="#36003B"/><path d="M126.737 96.606c-2.598-4.926-10.026-8.484-18.78-8.484-8.73 0-16.134 3.534-18.756 8.436 4.962 3.72 10.974 6.018 17.52 6.282 7.416.3 14.358-2.046 20.016-6.234z" fill="#FF60C3"/><path d="M194.087 103.734a5.468 5.468 0 01-5.25-3.948 5.463 5.463 0 013.726-6.768c.33-.096 21.144-6.366 31.11-21.792a5.467 5.467 0 017.56-1.626 5.467 5.467 0 011.626 7.56c-12.252 18.954-36.24 26.064-37.254 26.358a5.523 5.523 0 01-1.518.216z" fill="#F3B"/><path opacity=".5" d="M57.61 77.352c1.32-32.406 28.567-57.624 60.937-56.484a60.2 60.2 0 00-6.804-.672c-32.514-1.32-59.94 23.964-61.26 56.472-1.32 32.514 23.724 59.94 56.238 61.26.108.006.45.006.558.012-29.16-4.572-50.898-30.384-49.668-60.588z" fill="#FF119D"/></svg>