<svg width="162" height="148" viewBox="0 0 162 148" fill="none" xmlns="http://www.w3.org/2000/svg"><path d="M98.725 121.875c-32.615 0-59.055-26.44-59.055-59.056 0-32.615 26.44-59.055 59.055-59.055 32.616 0 59.056 26.44 59.056 59.055 0 32.616-26.44 59.056-59.056 59.056z" fill="#008F99"/><path d="M78.167 147.492c1.482 0 2.94-.699 3.852-2.008 7.703-11.028 10.912-32.007 11.046-32.896a4.698 4.698 0 00-9.29-1.395c-.03.196-3.024 19.693-9.46 28.91a4.696 4.696 0 001.161 6.54 4.701 4.701 0 002.69.849zm-31.691-11.261a4.69 4.69 0 003.393-1.449c11.195-11.688 15.934-25.194 16.13-25.763a4.696 4.696 0 00-8.874-3.071c-.043.12-4.319 12.188-14.036 22.337a4.697 4.697 0 00.144 6.64 4.662 4.662 0 003.243 1.306zM20.4 63.475c7.745 0 18.08-2.42 27.461-12.54a4.11 4.11 0 00-6.027-5.588c-6.53 7.047-14.298 10.367-23.093 9.86-6.78-.39-11.721-2.983-11.771-3.01a4.1 4.1 0 00-5.564 1.652 4.114 4.114 0 001.655 5.574c.253.14 6.327 3.39 14.821 3.963.803.06 1.642.09 2.517.09z" fill="#00ACA5"/><path d="M86.485 118.832c-32.616 0-59.056-26.44-59.056-59.056S53.869.72 86.485.72c32.615 0 59.056 26.44 59.056 59.056s-26.441 59.056-59.056 59.056z" fill="#00DBB7"/><path d="M29.387 74.887a59.326 59.326 0 0017 28.258l97.199-58.477a59.324 59.324 0 00-16.999-28.257l-97.2 58.476z" fill="#00F0D7"/><path d="M86.485 104.06c-24.458 0-44.285-19.826-44.285-44.284s19.827-44.284 44.285-44.284c24.457 0 44.284 19.826 44.284 44.284s-19.827 44.284-44.284 44.284z" fill="#00BCB7"/><path d="M78.696 50.19a2.998 2.998 0 01-2.184-3.634l.58-2.324a2.998 2.998 0 015.817 1.449l-.58 2.324a3 3 0 01-3.633 2.184z" fill="url(#paint0_linear_6106_9547)"/><path d="M94.42 54.741a2.998 2.998 0 01-2.184-3.633l.579-2.324a2.998 2.998 0 015.817 1.449l-.579 2.324a2.995 2.995 0 01-3.633 2.184z" fill="url(#paint1_linear_6106_9547)"/><path d="M157.794 125.112a4.11 4.11 0 002.768-7.149c-11.492-10.443-10.902-30.096-10.896-30.292a4.115 4.115 0 00-3.949-4.263 4.104 4.104 0 00-4.262 3.94c-.04.959-.776 23.649 13.579 36.695a4.086 4.086 0 002.76 1.069z" fill="#00CBB9"/><path d="M88.126 67.748c.117 0 .233 0 .346-.004 7.123-.086 12.751-2.717 12.987-2.83a2.355 2.355 0 00-2.014-4.256c-.05.024-5.052 2.341-11.176 2.378-7.885.056-13.949-3.603-18.038-10.852a2.36 2.36 0 00-3.21-.896 2.36 2.36 0 00-.895 3.21c6.153 10.905 15.29 13.25 22 13.25z" fill="#006C89"/><path d="M43.512 49.087C49.416 25.351 73.442 10.9 97.177 16.8a44.06 44.06 0 0122.46 13.61 44.082 44.082 0 00-18.614-9.764c-23.736-5.904-47.76 8.552-53.665 32.287-3.656 14.698.5 29.506 9.827 40.056-11.981-10.59-17.799-27.316-13.673-43.902z" fill="#00ACA5"/><defs><linearGradient id="paint0_linear_6106_9547" x1="79.489" y1="41.811" x2="80.666" y2="52.263" gradientUnits="userSpaceOnUse"><stop stop-color="#3D3C3E"/><stop offset=".079" stop-color="#313032"/><stop offset=".26" stop-color="#1B1B1C"/><stop offset=".458" stop-color="#0C0C0C"/><stop offset=".684" stop-color="#030303"/><stop offset="1"/></linearGradient><linearGradient id="paint1_linear_6106_9547" x1="94.923" y1="45.016" x2="97.573" y2="61.805" gradientUnits="userSpaceOnUse"><stop stop-color="#3D3C3E"/><stop offset=".079" stop-color="#313032"/><stop offset=".26" stop-color="#1B1B1C"/><stop offset=".458" stop-color="#0C0C0C"/><stop offset=".684" stop-color="#030303"/><stop offset="1"/></linearGradient></defs></svg>