<svg width="1440" height="1200" viewBox="0 0 1440 1200" fill="none" xmlns="http://www.w3.org/2000/svg"><g clip-path="url(#clip0_6015_5064)"><g opacity=".8" fill="#fff"><path opacity=".5" d="M57.792 451.878a3.39 3.39 0 100-6.78 3.39 3.39 0 000 6.78zm1290.318 55.908c1.87 0 3.39-1.518 3.39-3.39s-1.52-3.39-3.39-3.39a3.392 3.392 0 00-3.39 3.39c0 1.872 1.52 3.39 3.39 3.39z"/><path d="M685.65 219.882a3.39 3.39 0 100-6.78 3.39 3.39 0 000 6.78zM206.406 919.056a3.39 3.39 0 100-6.78 3.39 3.39 0 000 6.78zM1120.6 157.632c1.87 0 3.39-1.518 3.39-3.39s-1.52-3.39-3.39-3.39a3.385 3.385 0 00-3.39 3.39c0 1.872 1.51 3.39 3.39 3.39zm89.05 342.552c1.87 0 3.39-1.518 3.39-3.39s-1.52-3.39-3.39-3.39a3.392 3.392 0 00-3.39 3.39c0 1.872 1.52 3.39 3.39 3.39z"/><path opacity=".5" d="M383.232 141.654a3.39 3.39 0 100-6.78 3.39 3.39 0 000 6.78zm752.428 627.702c1.87 0 3.39-1.518 3.39-3.39s-1.52-3.39-3.39-3.39a3.392 3.392 0 00-3.39 3.39c0 1.872 1.52 3.39 3.39 3.39z"/><path opacity=".4" d="M96.828 868.242a3.39 3.39 0 100-6.78 3.39 3.39 0 000 6.78z"/><path opacity=".5" d="M1398.4 987.102c1.87 0 3.39-1.518 3.39-3.39s-1.52-3.39-3.39-3.39a3.392 3.392 0 00-3.39 3.39c0 1.872 1.52 3.39 3.39 3.39z"/><path opacity=".2" d="M252.39 723.096a3.39 3.39 0 100-6.78 3.39 3.39 0 000 6.78zm1088.93 173.67c1.88 0 3.39-1.518 3.39-3.39s-1.51-3.39-3.39-3.39a3.392 3.392 0 00-3.39 3.39c0 1.872 1.52 3.39 3.39 3.39zm-255.03 90.336c1.88 0 3.39-1.518 3.39-3.39s-1.51-3.39-3.39-3.39a3.392 3.392 0 00-3.39 3.39c0 1.872 1.52 3.39 3.39 3.39zM235.62 355.938a3.39 3.39 0 100-6.78 3.39 3.39 0 000 6.78zm196.392 41.994a3.264 3.264 0 100-6.527 3.264 3.264 0 000 6.527zM96.828 660.564a3.39 3.39 0 100-6.78 3.39 3.39 0 000 6.78zm6.78-517.212a1.698 1.698 0 100-3.395 1.698 1.698 0 000 3.395zm257.058 607.794a1.548 1.548 0 100-3.096 1.548 1.548 0 000 3.096zm964.834-60.66c.85 0 1.54-.693 1.54-1.548a1.544 1.544 0 10-3.09 0c0 .855.69 1.548 1.55 1.548zm-193.23-85.23c.86 0 1.55-.693 1.55-1.548 0-.855-.69-1.548-1.55-1.548-.85 0-1.55.693-1.55 1.548 0 .855.7 1.548 1.55 1.548zM362.214 1019.54a1.696 1.696 0 100-3.39 1.696 1.696 0 100 3.39zm980.806-722.234a1.698 1.698 0 100-3.396 1.698 1.698 0 100 3.396zM178.698 183.276a3.39 3.39 0 100-6.78 3.39 3.39 0 000 6.78zm816.576 912.664c1.326 0 2.4-1.07 2.4-2.4 0-1.32-1.074-2.4-2.4-2.4-1.325 0-2.4 1.08-2.4 2.4 0 1.33 1.075 2.4 2.4 2.4zm-114.63-939.298a2.4 2.4 0 10.001-4.799 2.4 2.4 0 00-.001 4.799zM1325.5 1046.03c1.32 0 2.4-1.08 2.4-2.4a2.4 2.4 0 10-2.4 2.4z"/><path opacity=".4" d="M61.182 1016.44c1.872 0 3.39-1.52 3.39-3.39s-1.518-3.39-3.39-3.39a3.391 3.391 0 00-3.39 3.39c0 1.87 1.518 3.39 3.39 3.39z"/><path opacity=".2" d="M873.672 952.716a3.39 3.39 0 100-6.78 3.39 3.39 0 000 6.78z"/><path opacity=".1" d="M552.816 979.296a6.45 6.45 0 100-12.9 6.45 6.45 0 000 12.9z"/></g><mask id="a" style="mask-type:luminance" maskUnits="userSpaceOnUse" x="0" y="270" width="1440" height="1200"><path d="M1440 270H0v1200h1440V270z" fill="#fff"/></mask><g mask="url(#a)"><path d="M737.04 2019c285.17 0 516.34-231.17 516.34-516.34 0-285.17-231.17-516.344-516.34-516.344-285.168 0-516.342 231.174-516.342 516.344 0 285.17 231.174 516.34 516.342 516.34z" fill="#7D63FF"/><mask id="b" style="mask-type:luminance" maskUnits="userSpaceOnUse" x="220" y="986" width="1034" height="1033"><path d="M737.04 2019c285.17 0 516.34-231.17 516.34-516.34 0-285.17-231.17-516.344-516.34-516.344-285.168 0-516.342 231.174-516.342 516.344 0 285.17 231.174 516.34 516.342 516.34z" fill="#fff"/></mask><g mask="url(#b)"><path d="M341.724 1372.45c-12.768 0-23.118-10.35-23.118-23.12 0-12.77 10.35-23.12 23.118-23.12h199.308c11.682-1.16 20.802-11.02 20.802-23 0-12.77-10.35-23.12-23.118-23.12h-95.082c-12.768 0-23.118-10.35-23.118-23.12 0-12.77 10.35-23.12 23.118-23.12h11.634c12.768 0 23.118-10.35 23.118-23.12 0-12.76-10.35-23.11-23.118-23.11h-36.312c-12.768 0-23.118-10.35-23.118-23.12 0-12.77 10.35-23.12 23.118-23.12h73.866c12.768 0 23.118-10.35 23.118-23.12 0-12.77-10.35-23.12-23.118-23.12H54.888c-12.768 0-23.118 10.35-23.118 23.12 0 12.77 10.35 23.12 23.118 23.12h104.748c12.768 0 23.118 10.35 23.118 23.12 0 12.77-10.35 23.12-23.118 23.12H-81.552c-12.768 0-23.118 10.35-23.118 23.11 0 12.77 10.35 23.12 23.118 23.12H309.78c12.768 0 23.118 10.35 23.118 23.12 0 12.77-10.35 23.12-23.118 23.12h-201.6c-12.768 0-23.118 10.35-23.118 23.12 0 11.98 9.12 21.84 20.802 23h21.774c12.768 0 23.118 10.35 23.118 23.12 0 12.77-10.35 23.12-23.118 23.12H52.572c.762.07 1.536.11 2.316.11-12.768 0-23.118 10.35-23.118 23.12 0 12.77 10.35 23.12 23.118 23.12h297c12.768 0 23.118-10.35 23.118-23.12 0-12.77-10.35-23.12-23.118-23.12l-10.164-.11z" fill="#00B3B7"/></g><path opacity=".4" d="M737.04 986.316c-10.26 0-20.454.312-30.564.9 270.936 15.814 485.774 240.544 485.774 515.444s-214.832 499.62-485.774 515.44c10.116.59 20.304.9 30.564.9 285.17 0 516.34-231.17 516.34-516.34 0-285.17-231.17-516.344-516.34-516.344z" fill="#000" fill-opacity=".21"/></g><path d="M310.356 623.587c-8.69 0-15.755-7.07-15.755-15.755s7.07-15.755 15.755-15.755 15.755 7.07 15.755 15.755-7.065 15.755-15.755 15.755zm0-24.52c-4.835 0-8.765 3.93-8.765 8.765 0 4.835 3.93 8.765 8.765 8.765 4.835 0 8.765-3.93 8.765-8.765 0-4.835-3.93-8.765-8.765-8.765z" fill="#FFCE00"/><path d="M351.247 790.969a6.974 6.974 0 01-6.965-6.965 6.974 6.974 0 016.965-6.965 6.974 6.974 0 016.965 6.965 6.974 6.974 0 01-6.965 6.965zm0-10.435a3.472 3.472 0 00-3.47 3.47 3.472 3.472 0 003.47 3.47 3.472 3.472 0 003.47-3.47 3.478 3.478 0 00-3.47-3.47z" fill="#A2FFEE"/><path d="M277.756 814.459l-15.435-15.435 15.435-15.435 15.435 15.435-15.435 15.435zm-8.02-15.435l8.02 8.02 8.02-8.02-8.02-8.02-8.02 8.02z" fill="#C087FF"/><path d="M368.117 732.254l-51.941-7.76 7.76-51.936 51.936 7.76-7.755 51.936zm-37.596-18.371l26.986 4.03 4.03-26.985-26.986-4.03-4.03 26.985z" fill="#FFA2E6"/><path d="M202 733.579l22.99-50.531 32.266 45.175L202 733.579zm24.51-34.871l-11.705 25.725 28.13-2.725-16.425-23z" fill="#A0D6FF"/><path d="M385.567 644.047l-11.09-19.325 22.28.06-11.19 19.265zm-5.045-15.815l5.06 8.82 5.105-8.79-10.165-.03z" fill="#95FF95"/><path opacity=".4" d="M739.341 1056.86c43.634 0 79.006-9.76 79.006-21.79 0-12.04-35.372-21.79-79.006-21.79s-79.006 9.75-79.006 21.79c0 12.03 35.372 21.79 79.006 21.79z" fill="#2D26A8"/><path d="M764.236 976.611c91.705 0 166.047-74.341 166.047-166.047 0-91.705-74.342-166.046-166.047-166.046s-166.047 74.341-166.047 166.046c0 91.706 74.342 166.047 166.047 166.047z" fill="#FF9600"/><path d="M770.371 1037.28c-7.29 0-13.205-5.91-13.205-13.2v-79.769c0-7.29 5.91-13.205 13.205-13.205s13.205 5.91 13.205 13.205v79.769c0 7.29-5.915 13.2-13.205 13.2zm-58.561 0c-7.29 0-13.205-5.91-13.205-13.2v-79.769c0-7.29 5.91-13.205 13.205-13.205s13.206 5.91 13.206 13.205v79.769c0 7.29-5.911 13.2-13.206 13.2zM494.183 847.31c3.06-4.725 9.085-6.565 14.255-4.335 5.66 2.445 13.725 5.205 22.991 6.245 22.87 2.58 42.725-6.275 59.015-26.315 4.06-4.996 11.565-5.956 16.525-1.851 4.865 4.031 5.6 11.236 1.615 16.161-24.73 30.595-53.16 36.585-74.515 35.405-2.16-.12-4.25-.31-6.255-.56-11.446-1.415-21.331-4.77-28.476-7.85-6.585-2.835-9.05-10.89-5.155-16.9z" fill="#FFCE00"/><path d="M728.776 976.521c91.705 0 166.047-74.342 166.047-166.047s-74.342-166.047-166.047-166.047-166.047 74.342-166.047 166.047 74.342 166.047 166.047 166.047z" fill="#FFDE00"/><path d="M583.024 890.07a166.796 166.796 0 0065.391 65.736l226.112-224.927a166.793 166.793 0 00-65.39-65.736L583.024 890.07z" fill="#FFE952"/><path d="M728.776 934.986c68.765 0 124.511-55.746 124.511-124.512 0-68.765-55.746-124.511-124.511-124.511-68.766 0-124.512 55.746-124.512 124.511 0 68.766 55.746 124.512 124.512 124.512z" fill="#FFCB00"/><path d="M773.751 812.279c4.025.01 7.17 3.585 6.62 7.57-3.76 27.176-27.115 48.066-55.31 47.991-28.196-.075-51.441-21.085-55.056-48.281-.53-3.99 2.635-7.545 6.66-7.535l97.086.255z" fill="#D90000"/><path d="M725.061 867.84c21.38.055 39.95-11.955 49.33-29.605-7.98-2.985-16.84-4.705-26.215-4.73-23.06-.06-43.186 9.91-54.096 24.77 8.855 5.985 19.491 9.535 30.981 9.565z" fill="#FF0036"/><path d="M682.86 796.454c-5.815-.015-10.515-4.74-10.5-10.555l.015-5.725c.015-5.815 4.74-10.515 10.555-10.5 5.815.015 10.515 4.74 10.5 10.555l-.015 5.725c-.01 5.815-4.74 10.515-10.555 10.5z" fill="url(#paint0_linear_6015_5064)"/><path d="M765.966 796.674c-5.815-.015-10.515-4.74-10.5-10.555l.015-5.725c.015-5.815 4.74-10.515 10.555-10.5 5.815.015 10.515 4.74 10.5 10.555l-.015 5.725c-.015 5.815-4.74 10.515-10.555 10.5z" fill="url(#paint1_linear_6015_5064)"/><path d="M964.573 941.311c-1.86 0-3.745-.45-5.495-1.395-47.965-25.986-61.18-88.426-61.72-91.071-1.275-6.25 2.76-12.355 9.015-13.625 6.25-1.275 12.345 2.755 13.625 9 .185.875 11.825 54.65 50.09 75.386 5.61 3.04 7.695 10.05 4.655 15.66a11.566 11.566 0 01-10.17 6.045z" fill="#FFCE00"/><path opacity=".8" d="M616.369 818.694c.18-68.765 56.071-124.361 124.837-124.181 23.95.065 46.3 6.89 65.256 18.66-21.211-16.96-48.091-27.135-77.361-27.21-68.766-.18-124.657 55.416-124.837 124.181-.12 44.816 23.461 84.156 58.926 106.176-28.62-22.885-46.926-58.13-46.821-97.626z" fill="#FFA800"/><path d="M515.553 878.09c-8.94-2.655-14.03-12.055-11.375-20.995l17.755-59.751 32.371 9.62-17.755 59.751c-2.655 8.935-12.056 14.03-20.996 11.375z" fill="#FA0010"/><path d="M554.301 806.995l-32.372-9.621-3.984 13.406 32.372 9.621 3.984-13.406z" fill="#C10000"/><path d="M445.118 667.748l-19.086 64.221-19.085 64.22c62.281-13.55 148.007 4.725 148.007 4.725l8.365-28.15 8.365-28.15s-78.651-27.411-126.566-76.866z" fill="#E9F1F9"/><path d="M566.444 762.239l2.72-9.675c-.78-.215-68.751-19.69-127.901-71.871l-6.751 22.72c57.391 47.591 117.177 62.421 128.397 65.756.65.195 1.095.32 1.355.395l2.18-7.325z" fill="#fff"/><path d="M513.433 757.939l-10.275 34.575c29.781 3.53 51.796 8.4 51.796 8.4l8.365-28.15 8.365-28.15s-21.08-7.24-48.221-20.441l-10.03 33.766z" fill="#D5DFE5"/><path d="M401.692 802.209c-4.675-1.39-7.34-6.305-5.95-10.98l37.596-126.516c1.39-4.675 6.305-7.34 10.98-5.95 4.675 1.39 7.34 6.305 5.95 10.98l-37.596 126.516c-1.39 4.675-6.305 7.34-10.98 5.95z" fill="#FF2020"/><path d="M553.764 806.804l-34.171-10.155 19.695-66.27 34.171 10.155c18.3 5.44 28.725 24.68 23.29 42.985-5.44 18.295-24.685 28.725-42.985 23.285z" fill="#FA0010"/><path d="M571.644 765.069l-16.88-5.015a2.328 2.328 0 01-1.57-2.9 2.328 2.328 0 012.9-1.57l16.88 5.015a2.328 2.328 0 011.57 2.9 2.33 2.33 0 01-2.9 1.57zm-2.165 7.285l-16.88-5.015a2.328 2.328 0 01-1.57-2.9 2.328 2.328 0 012.9-1.57l16.88 5.015a2.328 2.328 0 011.57 2.9 2.334 2.334 0 01-2.9 1.57zm-2.165 7.28l-16.88-5.015a2.328 2.328 0 01-1.57-2.9 2.328 2.328 0 012.9-1.57l16.88 5.015a2.328 2.328 0 011.57 2.9 2.328 2.328 0 01-2.9 1.57z" fill="#6F0300"/><path d="M546.542 732.562l-7.252-2.156-19.697 66.274 7.252 2.155 19.697-66.273z" fill="#E9F1F9"/><path d="M514.934 800.229a5.884 5.884 0 01-3.966-7.32l19.301-64.951a5.885 5.885 0 017.32-3.965 5.885 5.885 0 013.965 7.32l-19.3 64.951a5.889 5.889 0 01-7.32 3.965z" fill="#FF2020"/><path d="M1055.13 725.553h-92.517v-48.87c0-26.99 21.881-48.871 48.867-48.871h43.65c26.99 0 48.87 21.881 48.87 48.871 0 26.99-21.88 48.87-48.87 48.87z" fill="#fff"/><path d="M1000.17 685.598a6.46 6.46 0 006.46-6.465 6.46 6.46 0 00-6.46-6.465 6.465 6.465 0 100 12.93zm31.64 0a6.46 6.46 0 006.46-6.465 6.46 6.46 0 00-6.46-6.465 6.47 6.47 0 00-6.47 6.465 6.47 6.47 0 006.47 6.465zm31.64 0a6.46 6.46 0 006.46-6.465 6.46 6.46 0 00-6.46-6.465 6.47 6.47 0 00-6.47 6.465 6.47 6.47 0 006.47 6.465z" fill="#608DDB"/></g><defs><linearGradient id="paint0_linear_6015_5064" x1="682.924" y1="772.642" x2="682.851" y2="800.215" gradientUnits="userSpaceOnUse"><stop stop-color="#3D3C3E"/><stop offset=".079" stop-color="#313032"/><stop offset=".26" stop-color="#1B1B1C"/><stop offset=".458" stop-color="#0C0C0C"/><stop offset=".684" stop-color="#030303"/><stop offset="1"/></linearGradient><linearGradient id="paint1_linear_6015_5064" x1="766.028" y1="772.861" x2="765.955" y2="800.434" gradientUnits="userSpaceOnUse"><stop stop-color="#3D3C3E"/><stop offset=".079" stop-color="#313032"/><stop offset=".26" stop-color="#1B1B1C"/><stop offset=".458" stop-color="#0C0C0C"/><stop offset=".684" stop-color="#030303"/><stop offset="1"/></linearGradient><clipPath id="clip0_6015_5064"><path fill="#fff" d="M0 0h1440v1200H0z"/></clipPath></defs></svg>