<svg width="1440" height="807" viewBox="0 0 1440 807" fill="none" xmlns="http://www.w3.org/2000/svg"><g clip-path="url(#clip0_6104_6856)"><mask id="a" style="mask-type:luminance" maskUnits="userSpaceOnUse" x="0" y="0" width="1440" height="807"><path d="M1440 0H0v807h1440V0z" fill="#fff"/></mask><g mask="url(#a)"><path d="M1065.1 262.45c-2.39 0-4.34-1.937-4.34-4.327V162.35c0-2.389 1.95-4.326 4.34-4.326 2.4 0 4.35 1.937 4.35 4.326v95.773c0 2.386-1.95 4.327-4.35 4.327z" fill="#733426"/><path d="M1133.03 186.43l-63.58-23.802v47.604l63.58-23.802z" fill="#FF0028"/></g><mask id="b" style="mask-type:luminance" maskUnits="userSpaceOnUse" x="0" y="0" width="1440" height="807"><path d="M1440 0H0v807h1440V0z" fill="#fff"/></mask><g mask="url(#b)"><path d="M522.616 736.571c28.319-38.785 98.663-123 129.483-159.642 9.315-11.074 24.197-17.624 40.037-17.624H795.42c20.272 0 38.497-10.684 45.99-26.967l95.427-207.355c7.492-16.279 25.717-26.967 45.99-26.967h167.523c19.62 0 37.38 10.016 45.29 25.528l273.11 535.759c14.42 28.271-9.54 60.022-45.29 60.022H299.65c-39.136 0-62.788-37.4-41.661-65.869l57.317-77.234c9.103-12.267 24.804-19.682 41.661-19.682h123.781c16.997 0 32.801-7.545 41.868-19.969z" fill="url(#paint0_linear_6104_6856)"/><path d="M1213.29 378.165c4.02 3.474 8.85 5.837 13.95 7.097l-55.55-109.389c-7.34-14.45-23.87-23.784-42.14-23.784h-127.8c-18.846 0-35.784 9.926-42.755 25.053l-50.121 108.765c6.998-.69 13.788-3.349 19.152-7.989l9.428-8.151c6.309-5.451 14.575-8.177 22.842-8.177 8.266 0 16.533 2.726 22.842 8.177l9.432 8.151c6.304 5.452 14.57 8.173 22.84 8.178 8.26 0 16.53-2.726 22.83-8.178l9.44-8.151c6.31-5.451 14.57-8.177 22.84-8.177s16.53 2.726 22.84 8.177l9.43 8.151c12.62 10.904 33.07 10.904 45.68 0l9.43-8.151c12.62-10.903 33.07-10.903 45.68 0l9.71 8.398z" fill="#fff"/></g><mask id="c" style="mask-type:luminance" maskUnits="userSpaceOnUse" x="0" y="0" width="1440" height="807"><path d="M1440 0H0v807h1440V0z" fill="#fff"/></mask><g mask="url(#c)"><path d="M850.455 846.341l-383.247-360.46c-19.948-18.763-45.175-29.052-71.235-29.052h-79.092c-26.059 0-51.286-10.289-71.235-29.052L-45.571 153.872v692.469h896.026z" fill="url(#paint1_linear_6104_6856)"/></g><mask id="d" style="mask-type:luminance" maskUnits="userSpaceOnUse" x="0" y="0" width="1440" height="807"><path d="M1440 0H0v807h1440V0z" fill="#fff"/></mask><g mask="url(#d)" fill="#fff"><path opacity=".2" d="M835.902 196.258h-47.119c-12.672 0-22.941-10.236-22.941-22.856 0-12.625 10.273-22.856 22.941-22.856h47.119c12.672 0 22.941 10.235 22.941 22.856.005 12.62-10.269 22.856-22.941 22.856zm-218.362-.552h98.41c11.759 0 21.848-8.89 22.698-20.574.95-13.028-9.378-23.891-22.252-23.891H553.019c-12.326 0-22.316-9.953-22.316-22.233 0-12.28 9.99-22.233 22.316-22.233h110.713c12.159 0 22.437-9.5 22.77-21.61.347-12.562-9.774-22.856-22.306-22.856H245.867c-12.159 0-22.437 9.496-22.77 21.61-.347 12.562 9.774 22.856 22.306 22.856h166.266c12.326 0 22.316 9.953 22.316 22.233 0 12.28-9.99 22.233-22.316 22.233h-32.431c-12.159 0-22.437 9.5-22.77 21.609-.347 12.563 9.774 22.856 22.306 22.856h135.185c12.325 0 22.315 9.953 22.315 22.233 0 12.28-9.99 22.233-22.315 22.233H292.257c-12.325 0-22.315 9.953-22.315 22.233 0 12.28 9.99 22.233 22.315 22.233H654.8c12.325 0 22.315-9.953 22.315-22.233 0-12.28-9.99-22.233-22.315-22.233h-37.265c-12.325 0-22.315-9.953-22.315-22.233.004-12.275 9.994-22.233 22.32-22.233z"/></g><mask id="e" style="mask-type:luminance" maskUnits="userSpaceOnUse" x="0" y="0" width="1440" height="807"><path d="M1440 0H0v807h1440V0z" fill="#fff"/></mask><g mask="url(#e)"><path opacity=".6" d="M1537.65 251.089h82.91c8.86 0 16.47-6.702 17.11-15.508.71-9.823-7.07-18.014-16.78-18.014h-131.88c-9.29 0-16.82-7.505-16.82-16.758 0-9.259 7.53-16.759 16.82-16.759h83.47c9.16 0 16.91-7.16 17.16-16.288.26-9.473-7.36-17.234-16.81-17.234h-313.91c-9.16 0-16.91 7.16-17.16 16.288-.26 9.473 7.36 17.234 16.81 17.234h123.88c9.29 0 16.82 7.505 16.82 16.759 0 9.258-7.53 16.758-16.82 16.758H1358c-9.17 0-16.91 7.16-17.17 16.288-.26 9.473 7.37 17.234 16.82 17.234h101.91c9.29 0 16.82 7.505 16.82 16.759 0 9.258-7.53 16.759-16.82 16.759h-152.99c-9.3 0-16.82 7.505-16.82 16.758 0 9.258 7.53 16.759 16.82 16.759h259.18c9.29 0 16.82-7.505 16.82-16.759 0-9.258-7.53-16.758-16.82-16.758h-28.1c-9.29 0-16.82-7.506-16.82-16.759 0-9.258 7.53-16.759 16.82-16.759z" fill="#fff"/></g><mask id="f" style="mask-type:luminance" maskUnits="userSpaceOnUse" x="0" y="0" width="1440" height="807"><path d="M1440 0H0v807h1440V0z" fill="#fff"/></mask><g opacity=".4" fill="#fff" mask="url(#f)"><path d="M130.667 600.614H-4.815c-9.22 0-17.118 6.923-17.914 16.078-.914 10.464 7.34 19.238 17.653 19.238h172.557c9.788 0 17.721 7.904 17.721 17.655 0 9.751-7.933 17.655-17.721 17.655h-42.282c-9.598 0-17.883 7.815-18.031 17.373-.153 9.881 7.839 17.938 17.721 17.938h186.07c9.599 0 17.883-7.815 18.032-17.373.153-9.881-7.839-17.938-17.717-17.938h-17.109c-9.787 0-17.721-7.904-17.721-17.655 0-9.751 7.934-17.655 17.721-17.655h55.607c9.598 0 17.883-7.815 18.031-17.373.153-9.882-7.839-17.938-17.721-17.938H223.749c-9.787 0-17.721-7.904-17.721-17.656 0-9.751 7.934-17.655 17.721-17.655h30.645c9.788 0 17.721-7.904 17.721-17.655 0-9.752-7.933-17.656-17.721-17.656H40.954c-9.787 0-17.72 7.904-17.72 17.656 0 9.751 7.933 17.655 17.72 17.655h89.713c9.787 0 17.721 7.904 17.721 17.655 0 9.747-7.934 17.651-17.721 17.651zm289.197 105.937h-43.007c-9.787 0-17.721-7.904-17.721-17.655 0-9.752 7.934-17.656 17.721-17.656h43.007c9.787 0 17.721 7.904 17.721 17.656 0 9.751-7.934 17.655-17.721 17.655z"/></g><mask id="g" style="mask-type:luminance" maskUnits="userSpaceOnUse" x="0" y="0" width="1440" height="807"><path d="M1440 0H0v807h1440V0z" fill="#fff"/></mask><g opacity=".4" fill="#fff" mask="url(#g)"><path d="M1192.54 502.887h-14.1c-7.18 0-12.99-5.797-12.99-12.944 0-7.151 5.81-12.943 12.99-12.943h14.1c7.17 0 12.99 5.797 12.99 12.943 0 7.151-5.82 12.944-12.99 12.944zm266.86-77.67H1298c-7.18 0-12.99 5.797-12.99 12.944 0 7.151 5.82 12.943 12.99 12.943h30.41c7.18 0 12.99 5.797 12.99 12.943 0 7.151-5.81 12.944-12.99 12.944h-90.36c-6.85 0-12.72 5.174-13.22 11.979-.55 7.586 5.47 13.912 12.96 13.912h169.71c7.08 0 13.06-5.528 13.26-12.58.2-7.317-5.69-13.307-12.99-13.307h-16.33c-7.18 0-13-5.797-13-12.943 0-7.151 5.82-12.943 13-12.943h67.96c7.18 0 12.99-5.797 12.99-12.944.01-7.151-5.81-12.948-12.99-12.948z"/></g><mask id="h" style="mask-type:luminance" maskUnits="userSpaceOnUse" x="0" y="0" width="1440" height="807"><path d="M1440 0H0v807h1440V0z" fill="#fff"/></mask><g mask="url(#h)"><path d="M84.937 848.448c-63.247 0-114.516-51.078-114.516-114.091V582.156c0-63.013 51.269-114.092 114.516-114.092 63.248 0 114.516 51.079 114.516 114.092v152.201c0 63.008-51.268 114.091-114.516 114.091z" fill="#005CE1"/><path d="M88.749 924.952c-3.776 0-6.84-3.049-6.84-6.815V575.602c0-3.762 3.06-6.815 6.84-6.815s6.84 3.049 6.84 6.815v342.535c0 3.766-3.065 6.815-6.84 6.815z" fill="#007DEB"/><path d="M87.673 655.436h-2.6c-38.291 0-69.44-31.038-69.44-69.182 0-3.762 3.06-6.815 6.84-6.815s6.84 3.049 6.84 6.815c0 30.635 25.015 55.557 55.764 55.557h2.6c3.776 0 6.84 3.049 6.84 6.815 0 3.766-3.068 6.81-6.844 6.81zm1.076 54.204c-3.776 0-6.84-3.049-6.84-6.815 0-3.766 3.06-6.815 6.84-6.815 29.142 0 52.848-23.622 52.848-52.652 0-3.761 3.06-6.814 6.84-6.814s6.84 3.048 6.84 6.814c0 36.548-29.844 66.282-66.528 66.282zm0 74.343h-9.023c-35.343 0-64.098-28.649-64.098-63.861 0-3.762 3.06-6.815 6.84-6.815s6.84 3.049 6.84 6.815c0 27.698 22.617 50.231 50.418 50.231h9.023c3.775 0 6.84 3.049 6.84 6.815 0 3.766-3.065 6.815-6.84 6.815z" fill="#007DEB"/></g><mask id="i" style="mask-type:luminance" maskUnits="userSpaceOnUse" x="0" y="0" width="1440" height="807"><path d="M1440 0H0v807h1440V0z" fill="#fff"/></mask><g mask="url(#i)"><path d="M238.225 876.034c34.272 0 62.051-27.68 62.051-61.82v-87.439c0-34.145-27.783-61.82-62.051-61.82-34.272 0-62.05 27.68-62.05 61.82v87.439c0 34.14 27.783 61.82 62.05 61.82z" fill="#0086EB"/><path d="M236.16 927.857c-2.817 0-5.099-2.273-5.099-5.079V723.224c0-2.806 2.282-5.079 5.099-5.079s5.098 2.273 5.098 5.079v199.554c0 2.802-2.281 5.079-5.098 5.079z" fill="#005FDD"/><path d="M238.153 767.869h-1.409c-2.817 0-5.098-2.273-5.098-5.079 0-2.807 2.281-5.08 5.098-5.08h1.409c11.61 0 22.036-6.886 26.559-17.539a5.104 5.104 0 016.678-2.699c2.592 1.094 3.807 4.071 2.709 6.654-6.12 14.427-20.228 23.743-35.946 23.743zm-1.993 29.371c-20.646 0-37.44-16.732-37.44-37.302v-16.153c0-2.807 2.281-5.08 5.098-5.08 2.817 0 5.099 2.273 5.099 5.08v16.149c0 14.965 12.222 27.142 27.247 27.142 2.817 0 5.099 2.273 5.099 5.08 0 2.806-2.286 5.084-5.103 5.084zm4.891 40.283h-4.891c-2.817 0-5.099-2.274-5.099-5.08 0-2.807 2.282-5.08 5.099-5.08h4.887c10.782 0 20.268-6.465 24.178-16.476a5.102 5.102 0 016.597-2.892 5.071 5.071 0 012.903 6.573c-2.61 6.685-7.124 12.392-13.05 16.507-6.071 4.219-13.203 6.448-20.624 6.448z" fill="#005FDD"/></g><mask id="j" style="mask-type:luminance" maskUnits="userSpaceOnUse" x="0" y="0" width="1440" height="807"><path d="M1440 0H0v807h1440V0z" fill="#fff"/></mask><g mask="url(#j)"><path d="M1296.21 843.849c23.56 0 42.67-19.032 42.67-42.507v-60.121c0-23.475-19.11-42.507-42.67-42.507-23.56 0-42.66 19.032-42.66 42.507v60.121c0 23.475 19.09 42.507 42.66 42.507z" fill="url(#paint2_linear_6104_6856)"/><path d="M1294.79 879.482a3.501 3.501 0 01-3.51-3.492V738.782a3.501 3.501 0 013.51-3.493 3.5 3.5 0 013.5 3.493V875.99a3.499 3.499 0 01-3.5 3.492z" fill="#0086EB"/><path d="M1296.16 769.479h-.97a3.501 3.501 0 01-3.51-3.492 3.501 3.501 0 013.51-3.493h.97c7.98 0 15.15-4.734 18.26-12.06a3.503 3.503 0 014.59-1.856 3.498 3.498 0 011.87 4.577c-4.21 9.917-13.91 16.324-24.72 16.324zm-1.37 20.193c-14.19 0-25.75-11.504-25.75-25.649v-11.105c0-1.928 1.58-3.493 3.51-3.493 1.94 0 3.51 1.565 3.51 3.493v11.105c0 10.294 8.4 18.664 18.73 18.664a3.5 3.5 0 013.5 3.493 3.499 3.499 0 01-3.5 3.492zm3.36 27.698h-3.36a3.501 3.501 0 01-3.51-3.492 3.501 3.501 0 013.51-3.493h3.36c7.41 0 13.94-4.447 16.62-11.325a3.516 3.516 0 014.54-1.99c1.8.699 2.7 2.721 2 4.519-3.75 9.585-12.83 15.781-23.16 15.781z" fill="#0086EB"/></g><mask id="k" style="mask-type:luminance" maskUnits="userSpaceOnUse" x="0" y="0" width="1440" height="807"><path d="M1440 0H0v807h1440V0z" fill="#fff"/></mask><g mask="url(#k)"><path d="M1402.8 849.699c-39.4 0-71.34-31.823-71.34-71.074v-94.814c0-39.251 31.94-71.074 71.34-71.074 39.4 0 71.34 31.823 71.34 71.074v94.814c0 39.256-31.94 71.074-71.34 71.074z" fill="#005CE1"/><path d="M1405.17 897.362a4.255 4.255 0 01-4.26-4.246V679.732a4.255 4.255 0 014.26-4.246c2.36 0 4.27 1.901 4.27 4.246v213.384c0 2.345-1.91 4.246-4.27 4.246z" fill="#007DEB"/><path d="M1404.5 729.465h-1.62c-23.85 0-43.25-19.332-43.25-43.098 0-2.345 1.9-4.246 4.26-4.246 2.35 0 4.26 1.901 4.26 4.246 0 19.085 15.58 34.611 34.74 34.611h1.62c2.35 0 4.26 1.901 4.26 4.246 0 2.345-1.91 4.241-4.27 4.241zm.67 33.764a4.255 4.255 0 01-4.26-4.246c0-2.344 1.91-4.245 4.26-4.245 18.16 0 32.93-14.715 32.93-32.8 0-2.345 1.9-4.246 4.26-4.246 2.35 0 4.26 1.901 4.26 4.246 0 22.771-18.59 41.291-41.45 41.291zm0 46.313h-5.62c-22.01 0-39.92-17.848-39.92-39.781 0-2.344 1.9-4.245 4.26-4.245 2.35 0 4.26 1.901 4.26 4.245 0 17.257 14.09 31.294 31.41 31.294h5.62c2.35 0 4.26 1.901 4.26 4.246 0 2.345-1.91 4.241-4.27 4.241z" fill="#007DEB"/></g><path d="M369.432 464.657a9.739 9.739 0 01-6.3-2.3c-19.908-16.767-29.354-43.058-24.656-68.604.972-5.286 6.062-8.783 11.363-7.814 5.305.968 8.815 6.039 7.843 11.32-3.442 18.709 3.479 37.961 18.054 50.24 4.118 3.471 4.635 9.608 1.152 13.71a9.73 9.73 0 01-7.456 3.448zm-156.308-53.298c-.585 0-1.174-.054-1.773-.161-5.305-.969-8.815-6.039-7.843-11.321l2.133-11.589c1.624-8.841 6.966-16.611 14.652-21.318a32.02 32.02 0 0125.708-3.408l22.302 6.555c5.171 1.52 8.127 6.931 6.602 12.083-1.526 5.151-6.957 8.097-12.128 6.577l-22.302-6.555c-3.397-1-6.934-.529-9.954 1.318-3.019 1.852-5.035 4.779-5.67 8.254l-2.133 11.589c-.864 4.69-4.972 7.976-9.594 7.976z" fill="#FFBA00"/><path d="M340.668 406.333c67.816 0 122.791-54.772 122.791-122.336 0-67.565-54.975-122.337-122.791-122.337s-122.792 54.772-122.792 122.337c0 67.564 54.976 122.336 122.792 122.336z" fill="#FF8E00"/><path d="M139.644 273.994a8.533 8.533 0 019.814-2.353c2.538 1.067 5.985 2.161 10.355 2.784 14.004 1.999 30.775-1.924 48.51-11.343 4.243-2.255 9.54-.578 11.686 3.753 2.057 4.156.261 9.199-3.843 11.374-19.692 10.428-36.031 13.75-48.852 13.75-10.584 0-18.778-2.264-24.489-4.667-5.292-2.224-6.88-8.926-3.181-13.298z" fill="#FFCB00"/><path d="M314.887 401.559c67.816 0 122.792-54.772 122.792-122.337s-54.976-122.337-122.792-122.337-122.791 54.772-122.791 122.337 54.975 122.337 122.791 122.337z" fill="#FFDE00"/><path d="M198.261 317.546c7.312 22.022 20.803 41.605 38.799 56.324l194.454-132.972c-7.313-22.022-20.804-41.605-38.799-56.324L198.261 317.546z" fill="#FFE75F"/><path d="M314.887 370.955c50.852 0 92.075-41.07 92.075-91.733 0-50.663-41.223-91.733-92.075-91.733-50.851 0-92.074 41.07-92.074 91.733 0 50.663 41.223 91.733 92.074 91.733z" fill="#FFC700"/><path d="M283.356 262.965c-4.23-.784-7.015-4.833-6.232-9.047l.773-4.147c.788-4.214 4.851-6.99 9.081-6.21 4.23.785 7.016 4.834 6.233 9.048l-.774 4.147c-.788 4.21-4.851 6.989-9.081 6.209z" fill="url(#paint3_linear_6104_6856)"/><path d="M343.777 274.16c-4.23-.784-7.015-4.833-6.232-9.047l.774-4.147c.787-4.215 4.851-6.99 9.081-6.21 4.23.785 7.015 4.833 6.232 9.048l-.774 4.147c-.787 4.214-4.855 6.994-9.081 6.209z" fill="url(#paint4_linear_6104_6856)"/><path d="M277.376 293.322c-2.439-.466-3.938-2.99-3.146-5.34 5.414-15.996 21.992-25.949 39.096-22.667 17.1 3.281 28.787 18.655 27.851 35.512-.14 2.475-2.466 4.259-4.91 3.793l-58.891-11.298z" fill="#EC0000"/><path d="M284.684 294.725l44.271 8.496c-1.94-9.155-9.347-16.767-19.346-18.682-9.999-1.923-19.714 2.403-24.925 10.186z" fill="#FF0028"/><path d="M470.502 405.495a8.51 8.51 0 01-5.351-1.883c-31.423-25.201-32.715-72.209-32.751-74.195-.094-4.698 3.654-8.585 8.375-8.679 4.725-.099 8.608 3.636 8.712 8.325.009.408 1.237 41.117 26.383 61.287a8.485 8.485 0 011.296 11.966 8.554 8.554 0 01-6.664 3.179z" fill="#FFCB00"/><path opacity=".8" d="M232.029 270.251c9.297-49.81 57.366-82.677 107.361-73.415 17.415 3.228 32.76 11.141 44.977 22.188-13.167-15.109-31.365-26.052-52.641-29.993-49.995-9.263-98.059 23.605-107.361 73.414-6.061 32.46 5.846 64.103 28.706 84.771-17.771-20.385-26.384-48.357-21.042-76.965z" fill="#FFA100"/><path d="M436.63 234.752s11.723 13.687 10.827 24.026c-.895 10.338-9.9 12.051-14.71 9.715-4.415-2.143-7.65-8.585-2.313-17.193 5.188-8.362 6.196-16.548 6.196-16.548zm45.338-23.488s17.473 4.541 22.68 13.53c5.206 8.989-1.197 15.526-6.485 16.355-4.851.763-11.205-2.681-11.772-12.782-.549-9.814-4.423-17.103-4.423-17.103zm9.594 63.21s15.048 3.91 19.53 11.652c4.482 7.739-1.031 13.37-5.58 14.082-4.176.655-9.648-2.308-10.139-11.006-.472-8.451-3.811-14.728-3.811-14.728z" fill="#fff"/><path d="M121.779 352.529c3.469.78 6.921-1.385 7.704-4.846l35.064-154.487c.783-3.457-1.391-6.896-4.865-7.676-3.469-.78-6.921 1.386-7.704 4.847l-35.064 154.487c-.783 3.456 1.395 6.89 4.865 7.675z" fill="#8F4330"/><path d="M695.335 729.411a9.597 9.597 0 01-8.352-4.842c-9.837-17.269-9.72-58.184 4.442-79.543 2.92-4.403 8.869-5.613 13.288-2.708 4.419 2.91 5.634 8.837 2.718 13.239-4.576 6.9-7.587 18.687-8.064 31.536-.49 13.293 1.805 23.659 4.298 28.039 2.614 4.591.999 10.424-3.609 13.029a9.482 9.482 0 01-4.721 1.25zm-87.484-43.663c-4.302 0-8.217-2.905-9.302-7.254l-2.803-11.235a31.115 31.115 0 014.45-24.99 31.377 31.377 0 0121.627-13.419l22.626-3.129c5.247-.726 10.089 2.923 10.818 8.151.729 5.227-2.934 10.051-8.181 10.777l-22.626 3.13c-3.447.475-6.421 2.322-8.374 5.196-1.949 2.874-2.561 6.308-1.724 9.675l2.804 11.235c1.278 5.12-1.854 10.308-6.998 11.581a9.822 9.822 0 01-2.317.282z" fill="#FFBA00"/><path d="M709.46 660.987c66.621 0 120.627-53.807 120.627-120.18 0-66.374-54.006-120.181-120.627-120.181-66.62 0-120.627 53.807-120.627 120.181 0 66.373 54.007 120.18 120.627 120.18z" fill="#FF8E00"/><path d="M516.712 545.931a8.38 8.38 0 019.41-3.112c2.574.834 6.039 1.619 10.368 1.87 13.869.807 29.965-4.416 46.543-15.104 3.969-2.556 9.293-1.354 11.75 2.708 2.358 3.896 1.026 8.98-2.813 11.446-21.415 13.763-39.181 17.745-52.569 17.745-7.632 0-13.837-1.292-18.49-2.807-5.351-1.739-7.452-8.169-4.199-12.746z" fill="#FFCB00"/><path d="M684.211 655.912c66.62 0 120.627-53.807 120.627-120.181 0-66.373-54.007-120.18-120.627-120.18-66.621 0-120.627 53.807-120.627 120.18 0 66.374 54.006 120.181 120.627 120.181z" fill="#FFDE00"/><path d="M569.074 571.629c6.854 21.74 19.809 41.18 37.265 55.903l193.014-127.703c-6.849-21.74-19.809-41.18-37.265-55.903L569.074 571.629z" fill="#FFE75F"/><path d="M684.211 625.851c49.957 0 90.455-40.348 90.455-90.12 0-49.771-40.498-90.119-90.455-90.119-49.956 0-90.454 40.348-90.454 90.119 0 49.772 40.498 90.12 90.454 90.12z" fill="#FFC700"/><path d="M653.485 519.291c-4.14-.834-6.822-4.851-5.985-8.98l.824-4.062c.837-4.125 4.869-6.797 9.013-5.963 4.14.834 6.822 4.851 5.985 8.98l-.823 4.062c-.837 4.125-4.874 6.797-9.014 5.963z" fill="url(#paint5_linear_6104_6856)"/><path d="M712.665 531.19c-4.14-.834-6.822-4.851-5.985-8.98l.823-4.062c.837-4.125 4.869-6.797 9.014-5.963 4.14.834 6.822 4.851 5.985 8.98l-.824 4.062c-.837 4.129-4.873 6.797-9.013 5.963z" fill="url(#paint6_linear_6104_6856)"/><path d="M695.308 550.612a8.107 8.107 0 01-4.621-1.224c-8.915-5.551-19.638-5.815-25.236-5.475-4.46.274-8.321-3.124-8.591-7.581-.27-4.456 3.168-7.949 7.61-8.559 9.085-1.25 23.224-.394 34.821 7.905 3.816 2.73 4.954 7.357 2.578 11.141a8.114 8.114 0 01-6.561 3.793z" fill="#CB0000"/><path d="M824.49 678.674a8.38 8.38 0 01-6.404-2.951c-27.045-31.728-24.579-70.85-24.462-72.5.329-4.604 4.347-8.079 8.969-7.747 4.617.328 8.095 4.322 7.776 8.922-.036.601-1.895 34.212 20.511 60.503a8.34 8.34 0 01-.963 11.786 8.383 8.383 0 01-5.427 1.987z" fill="#FFCB00"/><path opacity=".8" d="M602.959 525.68c9.886-48.788 57.595-80.355 106.56-70.505 17.055 3.43 32.008 11.437 43.848 22.47-12.708-15.037-30.416-26.057-51.26-30.249-48.969-9.85-96.678 21.718-106.56 70.505-6.439 31.796 4.775 63.054 26.924 83.7-17.15-20.297-25.191-47.9-19.512-75.921z" fill="#FFA100"/><path d="M750.357 509.28s11.961 13.055 11.425 23.237c-.535 10.181-9.324 12.154-14.121 10.02-4.405-1.959-7.794-8.178-2.839-16.808 4.815-8.379 5.535-16.449 5.535-16.449zm86.787 91.652s13.257 7.546 15.516 16.028c2.259 8.483-4.415 12.41-8.91 11.926-4.127-.444-8.55-4.649-6.777-13.019 1.719-8.138.171-14.935.171-14.935zm11.799-52.02s15.268-.578 21.69 5.43c6.421 6.007 2.839 12.867-1.233 14.822-3.74 1.797-9.729.56-12.672-7.483-2.858-7.81-7.785-12.769-7.785-12.769z" fill="#fff"/><path d="M507.861 624.869c3.478.345 6.579-2.183 6.925-5.649l15.53-154.827c.346-3.466-2.192-6.555-5.67-6.9-3.479-.346-6.579 2.183-6.926 5.649l-15.529 154.827c-.347 3.466 2.191 6.555 5.67 6.9z" fill="#8F4330"/><path d="M977.836 710.689a7.033 7.033 0 01-5.323-2.417 7.007 7.007 0 01.693-9.908l40.054-34.687c2.94-2.547 7.39-2.233 9.95.695a7.008 7.008 0 01-.7 9.908l-40.052 34.687a7.06 7.06 0 01-4.622 1.722zm62.914 37.243a7.02 7.02 0 01-2-.291c-3.74-1.103-5.87-5.008-4.76-8.729l15.06-50.702c1.11-3.722 5.03-5.842 8.76-4.744a7.02 7.02 0 014.76 8.729l-15.06 50.702c-.91 3.058-3.72 5.035-6.76 5.035z" fill="#FFBA00"/><path d="M1083.32 716.975c48.96 0 88.66-39.545 88.66-88.327 0-48.781-39.7-88.326-88.66-88.326-48.96 0-88.654 39.545-88.654 88.326 0 48.782 39.694 88.327 88.654 88.327z" fill="#FF8E00"/><path d="M1000.55 600.282a6.17 6.17 0 01-5.686-3.752c-8.419-19.839-24.403-30.68-30.888-34.419a6.13 6.13 0 01-2.245-8.397c1.705-2.936 5.481-3.941 8.428-2.237 9.387 5.416 26.555 17.848 36.071 40.269 1.32 3.125-.15 6.73-3.28 8.052-.79.328-1.6.484-2.4.484z" fill="#FFCB00"/><path d="M1066.45 708.402c48.97 0 88.66-39.544 88.66-88.326 0-48.781-39.69-88.326-88.66-88.326-48.96 0-88.65 39.545-88.65 88.326 0 48.782 39.69 88.326 88.65 88.326z" fill="#FFCA00"/><path d="M977.832 622.789a88.485 88.485 0 0015.273 46.913l161.975-52.338a88.42 88.42 0 00-15.28-46.914l-161.968 52.339z" fill="#FFE711"/><path d="M1066.45 686.309c36.72 0 66.48-29.654 66.48-66.233 0-36.579-29.76-66.232-66.48-66.232-36.71 0-66.474 29.653-66.474 66.232s29.764 66.233 66.474 66.233z" fill="#FFBA00"/><path d="M1072.23 638.653c6.71-8.615 4.62-21.415-4.66-28.589-9.28-7.174-22.25-6.004-28.95 2.611-6.71 8.616-4.63 21.416 4.66 28.59 9.28 7.173 22.24 6.004 28.95-2.612z" fill="#EC0000"/><path d="M1061.95 626.16c-8.5-6.568-20.08-6.137-27.13.601.66 5.479 3.55 10.827 8.45 14.611 8.5 6.568 20.09 6.138 27.13-.601-.66-5.474-3.55-10.827-8.45-14.611z" fill="#FF0028"/><path d="M1052.97 586.693l-2.46 1.422-1.43-2.453a2.652 2.652 0 00-3.62-.964 2.638 2.638 0 00-.97 3.609l1.43 2.453-2.46 1.421a2.638 2.638 0 00-.97 3.609 2.656 2.656 0 003.62.964l2.47-1.421 1.42 2.452a2.664 2.664 0 003.63.964 2.635 2.635 0 00.96-3.609l-1.42-2.452 2.46-1.422c1.27-.73 1.7-2.349.97-3.609a2.666 2.666 0 00-3.63-.964z" fill="url(#paint7_linear_6104_6856)"/><path d="M1096.64 611.464l-2.84.027-.03-2.834c-.01-1.457-1.22-2.631-2.68-2.613a2.64 2.64 0 00-2.62 2.667l.03 2.834-2.85.026a2.64 2.64 0 10.06 5.282l2.84-.027.03 2.833a2.637 2.637 0 002.67 2.614c1.47-.013 2.65-1.21 2.63-2.667l-.03-2.834 2.84-.027c1.47-.013 2.65-1.21 2.63-2.667a2.655 2.655 0 00-2.68-2.614z" fill="url(#paint8_linear_6104_6856)"/><path d="M1188.62 706.779c-1.37 0-2.74-.448-3.88-1.367-22.35-18.014-41.29-18.812-41.47-18.816a6.14 6.14 0 01-6.03-6.268c.07-3.394 2.91-6.084 6.31-6.021.93.018 23.08.699 48.95 21.551a6.122 6.122 0 01.91 8.644 6.14 6.14 0 01-4.79 2.277z" fill="#FFCB00"/><path opacity=".8" d="M1010.94 596.947c16.68-32.581 56.72-45.52 89.43-28.895 11.39 5.788 20.38 14.405 26.57 24.546-6.01-13.15-16.35-24.439-30.27-31.513-32.7-16.625-72.74-3.686-89.43 28.895-10.873 21.233-9.145 45.568 2.43 64.546-8.11-17.745-8.31-38.866 1.27-57.579z" fill="#FFA100"/><path d="M1162.67 736.159a5.972 5.972 0 008.41-.467l73.8-81.421a5.924 5.924 0 00-.47-8.38c-2.46-2.183-6.22-1.977-8.41.467l-73.8 81.421a5.924 5.924 0 00.47 8.38z" fill="#8F4330"/></g><defs><linearGradient id="paint0_linear_6104_6856" x1="861.545" y1="295.463" x2="861.545" y2="870.488" gradientUnits="userSpaceOnUse"><stop stop-color="#059BEF"/><stop offset=".37" stop-color="#0898EE"/><stop offset=".675" stop-color="#128EED"/><stop offset=".956" stop-color="#247DEA"/><stop offset="1" stop-color="#277AE9"/></linearGradient><linearGradient id="paint1_linear_6104_6856" x1="402.441" y1="292.801" x2="402.441" y2="838.454" gradientUnits="userSpaceOnUse"><stop stop-color="#57B2FB"/><stop offset=".535" stop-color="#56B0FA"/><stop offset=".789" stop-color="#51A8F6"/><stop offset=".984" stop-color="#4A9BF0"/><stop offset="1" stop-color="#499AEF"/></linearGradient><linearGradient id="paint2_linear_6104_6856" x1="1253.54" y1="771.282" x2="1338.87" y2="771.282" gradientUnits="userSpaceOnUse"><stop stop-color="#00B2FB"/><stop offset=".541" stop-color="#00B0FA"/><stop offset=".798" stop-color="#00A8F6"/><stop offset=".995" stop-color="#009BEF"/><stop offset="1" stop-color="#009BEF"/></linearGradient><linearGradient id="paint3_linear_6104_6856" x1="286.558" y1="245.714" x2="282.855" y2="265.69" gradientUnits="userSpaceOnUse"><stop stop-color="#3D3C3E"/><stop offset=".079" stop-color="#313032"/><stop offset=".26" stop-color="#1B1B1C"/><stop offset=".458" stop-color="#0C0C0C"/><stop offset=".684" stop-color="#030303"/><stop offset="1"/></linearGradient><linearGradient id="paint4_linear_6104_6856" x1="346.974" y1="256.913" x2="343.271" y2="276.889" gradientUnits="userSpaceOnUse"><stop stop-color="#3D3C3E"/><stop offset=".079" stop-color="#313032"/><stop offset=".26" stop-color="#1B1B1C"/><stop offset=".458" stop-color="#0C0C0C"/><stop offset=".684" stop-color="#030303"/><stop offset="1"/></linearGradient><linearGradient id="paint5_linear_6104_6856" x1="656.867" y1="502.404" x2="652.931" y2="521.971" gradientUnits="userSpaceOnUse"><stop stop-color="#3D3C3E"/><stop offset=".079" stop-color="#313032"/><stop offset=".26" stop-color="#1B1B1C"/><stop offset=".458" stop-color="#0C0C0C"/><stop offset=".684" stop-color="#030303"/><stop offset="1"/></linearGradient><linearGradient id="paint6_linear_6104_6856" x1="716.044" y1="514.307" x2="712.108" y2="533.874" gradientUnits="userSpaceOnUse"><stop stop-color="#3D3C3E"/><stop offset=".079" stop-color="#313032"/><stop offset=".26" stop-color="#1B1B1C"/><stop offset=".458" stop-color="#0C0C0C"/><stop offset=".684" stop-color="#030303"/><stop offset="1"/></linearGradient><linearGradient id="paint7_linear_6104_6856" x1="1048.35" y1="585.71" x2="1051.57" y2="601.521" gradientUnits="userSpaceOnUse"><stop stop-color="#3D3C3E"/><stop offset=".079" stop-color="#313032"/><stop offset=".26" stop-color="#1B1B1C"/><stop offset=".458" stop-color="#0C0C0C"/><stop offset=".684" stop-color="#030303"/><stop offset="1"/></linearGradient><linearGradient id="paint8_linear_6104_6856" x1="1093.11" y1="608.391" x2="1088.15" y2="623.747" gradientUnits="userSpaceOnUse"><stop stop-color="#3D3C3E"/><stop offset=".079" stop-color="#313032"/><stop offset=".26" stop-color="#1B1B1C"/><stop offset=".458" stop-color="#0C0C0C"/><stop offset=".684" stop-color="#030303"/><stop offset="1"/></linearGradient><clipPath id="clip0_6104_6856"><path fill="#fff" d="M0 0h1440v807H0z"/></clipPath></defs></svg>